<svg width="132" height="130" viewBox="0 0 132 130" fill="none" xmlns="http://www.w3.org/2000/svg">
<path d="M77.8341 1.30103C77.8341 0.585746 77.2463 0 76.5284 0C75.8095 0 75.2217 0.585746 75.2217 1.30103V13.375H77.8339V1.30103H77.8341Z" fill="#38923D"/>
<path d="M66.2628 104.75H68.3102C69.1501 104.75 69.8258 104.077 69.8258 103.24V77.3116C69.8258 76.4746 70.4804 75.8014 71.3203 75.8014C72.16 75.8014 72.8349 76.4749 72.8349 77.3116V81.1236V81.1466V81.1874H74.9713L74.9851 81.1884V81.1874H75.0261V77.3116C75.0261 76.4746 75.702 75.8014 76.5207 75.8014C77.3606 75.8014 78.0352 76.4749 78.0352 77.3116V81.1236V81.1466V81.1874H80.1716L80.1855 81.1884V81.1874H80.2267V77.3116C80.2267 76.4746 80.9023 75.8014 81.7412 75.8014C82.5599 75.8014 83.2358 76.4749 83.2358 77.3116V81.1236V81.1466V81.1874H88.2411L88.2721 81.1884V81.1874H88.3133V69.947C88.3133 69.1104 87.6384 68.4369 86.7987 68.4369H66.2631C65.4244 68.4369 64.7485 69.1104 64.7485 69.947V103.24C64.7483 104.077 65.4242 104.75 66.2628 104.75Z" fill="#38923D"/>
<path d="M69.7026 58.0128H70.2754C71.1153 58.0128 71.7909 57.3394 71.7909 56.5027V41.6517H73.9205V57.8726V57.972V58.0128H75.456V41.6517H77.5852V57.8726L77.5842 57.972H77.5852V58.0128H79.1407V41.6517H81.27V56.5027C81.27 57.3394 81.9459 58.0128 82.7856 58.0128H83.3384C84.177 58.0128 84.8529 57.3394 84.8529 56.5027V37.9391C84.8529 37.1022 84.177 36.4499 83.3384 36.4499H82.9494C82.1097 36.4499 81.4338 35.7764 81.4338 34.9397V18.252C81.4338 17.415 80.7579 16.7418 79.9392 16.7418H73.1212C72.2826 16.7418 71.6067 17.4153 71.6067 18.252V34.94C71.6067 35.7767 70.9308 36.4501 70.1121 36.4501H69.7021C68.8834 36.4501 68.2075 37.1024 68.2075 37.9394V56.5029C68.208 57.3394 68.8839 58.0128 69.7026 58.0128ZM75.7838 36.4022V36.4499H73.6745V21.9434H75.7838V36.4022Z" fill="#38923D"/>
<path d="M68.0254 66.2447H85.0312C85.8639 66.2447 86.5378 65.5733 86.5378 64.7435V62.1846C86.5378 61.3548 85.8639 60.6836 85.0312 60.6836H68.0254C67.1927 60.6836 66.5181 61.355 66.5181 62.1846V64.7435C66.5178 65.5733 67.1924 66.2447 68.0254 66.2447Z" fill="#38923D"/>
<path d="M130.868 109.56V61.3934H96.9842V85.0362V85.1408H74.5113H74.4422H74.401V109.451V109.56H70.5621V106.79H64.5022C63.6622 106.79 62.9876 107.464 62.9876 108.3V108.83C62.9876 109.099 63.0816 109.34 63.2105 109.56H52.1051V41.9526H18.2014V87.1879L18.2004 87.4251H0V129.699V129.958V130H131.032V109.56H130.868ZM126.609 68.5139V73.1448H121.819V68.5139H126.609ZM126.609 77.5715V82.2232H121.819V77.5715H126.609ZM126.609 86.6499V91.2808H121.819V86.6499H126.609ZM126.609 95.7077V100.358H121.819V95.7077H126.609ZM126.609 104.786V109.416H121.819V104.786H126.609ZM126.609 113.844V118.495H121.819V113.844H126.609ZM117.273 68.5139V73.1448H112.482V68.5139H117.273ZM117.273 77.5715V82.2232H112.482V77.5715H117.273ZM117.273 86.6499V91.2808H112.482V86.6499H117.273ZM117.273 95.7077V100.358H112.482V95.7077H117.273ZM117.273 104.786V109.416H112.482V104.786H117.273ZM117.273 113.844V118.495H112.482V113.844H117.273ZM107.937 68.5139V73.1448H103.147V68.5139H107.937ZM107.937 77.5715V82.2232H103.147V77.5715H107.937ZM107.937 86.6499V91.2808H103.147V86.6499H107.937ZM107.937 95.7077V100.358H103.147V95.7077H107.937ZM107.937 104.786V109.416H103.147V104.786H107.937ZM107.937 113.844V118.495H103.147V113.844H107.937ZM93.6263 95.7077V100.358H88.8357V95.7077H93.6263ZM93.6263 104.786V109.416H88.8357V104.786H93.6263ZM93.6263 113.844V118.495H88.8357V113.844H93.6263ZM84.29 95.7077V100.358H79.4997V95.7077H84.29ZM84.29 104.786V109.416H79.4997V104.786H84.29ZM84.29 113.844V118.495H79.4997V113.844H84.29ZM69.9175 113.844V118.495H65.1271V113.844H69.9175ZM60.5812 113.844V118.495H55.7909V113.844H60.5812ZM46.2708 50.3775V55.0086H41.4795V50.3775H46.2708ZM46.2708 59.4353V64.0871H41.4795V59.4353H46.2708ZM46.2708 68.5139V73.1448H41.4795V68.5139H46.2708ZM46.2708 77.5715V82.2232H41.4795V77.5715H46.2708ZM46.2708 86.6499V91.2808H41.4795V86.6499H46.2708ZM46.2708 95.7077V100.358H41.4795V95.7077H46.2708ZM46.2708 104.786V109.416H41.4795V104.786H46.2708ZM46.2708 113.844V118.495H41.4795V113.844H46.2708ZM36.9346 50.3775V55.0086H32.1432V50.3775H36.9346ZM36.9346 59.4353V64.0871H32.1432V59.4353H36.9346ZM36.9346 68.5139V73.1448H32.1432V68.5139H36.9346ZM36.9346 77.5715V82.2232H32.1432V77.5715H36.9346ZM36.9346 86.6499V91.2808H32.1432V86.6499H36.9346ZM36.9346 95.7077V100.358H32.1432V95.7077H36.9346ZM36.9346 104.786V109.416H32.1432V104.786H36.9346ZM36.9346 113.844V118.495H32.1432V113.844H36.9346ZM27.5986 50.3775V55.0086H22.808V50.3775H27.5986ZM27.5986 59.4353V64.0871H22.808V59.4353H27.5986ZM27.5986 68.5139V73.1448H22.808V68.5139H27.5986ZM27.5986 77.5715V82.2232H22.808V77.5715H27.5986ZM27.5986 86.6499V91.2808H22.808V86.6499H27.5986ZM27.5986 95.7077V100.358H22.808V95.7077H27.5986ZM27.5986 104.786V109.416H22.808V104.786H27.5986ZM27.5986 113.844V118.495H22.808V113.844H27.5986ZM17.0139 95.7077V100.358H12.2223V95.7077H17.0139ZM17.0139 104.786V109.416H12.2223V104.786H17.0139ZM17.0139 113.844V118.495H12.2223V113.844H17.0139ZM7.67764 95.7077V100.358H2.88731V95.7077H7.67764ZM7.67764 104.786V109.416H2.88731V104.786H7.67764ZM7.67764 113.844V118.495H2.88731V113.844H7.67764Z" fill="#38923D"/>
</svg>
