<svg width="141" height="130" viewBox="0 0 141 130" fill="none" xmlns="http://www.w3.org/2000/svg">
<path d="M22.9522 0C10.2757 0 0 12.6751 0 26.9794C0 35.686 4.09644 43.3649 9.10524 48.1415C13.5027 52.3422 16.2007 55.5755 16.7385 62.5923V130H29.1611V62.5923C29.699 55.5755 32.4014 52.3422 36.7988 48.1415C41.8076 43.3649 45.904 35.6858 45.904 26.9794C45.9043 12.6751 35.6243 0 22.9522 0Z" fill="#38923D"/>
<path d="M90.4357 9.46776V33.9577C90.4357 35.5229 89.1665 36.7911 87.6 36.7911H86.8427C85.2763 36.7911 84.007 35.5229 84.007 33.9577V9.35576C84.007 5.31409 81.292 4.11023 78.6843 4.11023C76.0766 4.11023 73.3571 5.31409 73.3571 9.35576V33.9575C73.3571 35.5226 72.0878 36.7909 70.5258 36.7909H69.7685C68.2021 36.7909 66.9372 35.5226 66.9372 33.9575V9.46748C66.9372 2.23578 56.6186 2.48509 56.6186 9.5448C56.6186 17.9977 56.6186 32.9297 56.6186 32.9297C56.5756 45.9229 59.6779 49.2893 64.8115 53.3395C68.9423 56.5986 72.4709 58.4689 72.4709 66.5605V130H84.8979V66.5608C84.8979 58.4692 88.4265 56.5989 92.5574 53.3398C97.6865 49.2896 100.793 45.9231 100.746 32.93C100.746 32.93 100.746 17.9977 100.746 9.54508C100.746 2.48536 90.4357 2.23578 90.4357 9.46776Z" fill="#38923D"/>
<path d="M125.212 11.9055C122.962 19.4168 116.193 36.688 114.502 51.8996C112.815 67.107 120.707 72.1762 125.776 80.6247L128.577 87.6714V130H140.94H141C141 127.923 141 91.9451 141 66.7028C141 41.7269 141 16.2911 141 11.9055C141 2.88934 128.599 0.636538 125.212 11.9055Z" fill="#38923D"/>
</svg>
