<svg width="157" height="130" viewBox="0 0 157 130" fill="none" xmlns="http://www.w3.org/2000/svg">
<path d="M100.42 40.5442C104.772 40.5442 108.761 39.7274 112.273 38.1262C127.027 31.3799 131.618 11.504 131.811 10.6653L132.576 7.23815L129.473 5.58265C129.048 5.351 118.886 0 107.736 0C103.377 0 99.3873 0.815504 95.8755 2.42517C87.2714 6.35986 82.1095 14.6769 79.1931 21.4542C78.9459 21.4147 78.6918 21.3927 78.4448 21.3927C78.1891 21.3927 77.9435 21.4147 77.6965 21.4542C74.7798 14.6772 69.617 6.36018 61.0053 2.42517C57.4938 0.81519 53.5058 0 49.1539 0C37.9803 0 27.8402 5.351 27.4162 5.58265L24.314 7.23815L25.0783 10.6653C25.2714 11.504 29.8775 31.3872 44.6167 38.1262C48.1194 39.7277 52.109 40.5442 56.4681 40.5442C62.6199 40.5442 68.4205 38.9389 72.5303 37.4247C72.9725 37.2677 73.41 37.1108 73.8155 36.9588V72.1715C73.8155 74.7197 75.8908 76.7917 78.4448 76.7917C80.9992 76.7917 83.0742 74.7194 83.0742 72.1715V46.264L83.0928 36.9466C87.2207 38.5789 93.6159 40.5442 100.42 40.5442ZM122.776 13.7688C120.761 19.1898 116.54 27.7064 109.063 31.1263C106.563 32.2654 103.654 32.8443 100.413 32.8443C93.9845 32.8443 87.7429 30.587 84.5399 29.2087C84.6478 28.8619 84.7721 28.4767 84.9108 28.0771C98.5919 26.9597 111.779 21.9618 122.776 13.7688ZM120.084 10.0155C111.724 16.2529 102.018 20.5066 91.8319 22.4647C90.1843 22.7726 88.5267 23.0337 86.8546 23.2186C89.2099 18.1495 93.1095 12.1613 99.0933 9.42538C101.586 8.28499 104.494 7.7002 107.735 7.7002C111.123 7.7002 114.451 8.33176 117.318 9.12875C118.228 9.39242 119.147 9.67807 120.084 10.0155ZM72.3479 29.2172C69.1534 30.5867 62.9265 32.844 56.4675 32.844C53.2275 32.844 50.3255 32.2651 47.825 31.126C39.9002 27.4992 35.6109 18.0811 33.7583 12.7753C44.8004 21.4307 57.888 26.6589 71.9399 27.9845C72.0862 28.4237 72.2249 28.8396 72.3479 29.2172ZM69.93 23.1119C60.3171 21.8635 51.2446 18.6157 43.0852 13.6055C41.1549 12.4137 39.2664 11.1506 37.4591 9.76156C40.7186 8.69494 44.8778 7.70052 49.1536 7.70052C52.3936 7.70052 55.2955 8.28531 57.7958 9.42569C62.7866 11.7052 66.3204 16.2897 68.726 20.6952C69.1682 21.523 69.5809 22.3369 69.93 23.1119Z" fill="#38923D"/>
<path d="M66.1408 109.976L66.1293 109.93L44.8877 115.216L48.4987 129.669L48.5209 129.758L48.5321 129.803L69.7737 124.518L66.1627 110.064L66.1408 109.976Z" fill="#38923D"/>
<path d="M62.6926 96.992C60.9322 89.9455 56.5438 83.9497 50.3397 80.1617L25.6283 65.026C24.8438 64.5742 23.952 64.3561 23.0445 64.4157C21.5807 64.5076 20.2141 65.3282 19.4593 66.5821L18.4178 68.2843C17.7954 69.3165 17.6176 70.5323 17.9078 71.6937C18.198 72.855 18.9268 73.8441 19.9617 74.4642L38.4388 85.7783C39.2323 86.2711 39.7887 87.074 39.9355 87.9985C40.1039 88.9188 39.8556 89.8581 39.2582 90.571L38.798 91.337L38.7354 91.4282L37.9367 90.817L17.5877 78.3803C15.5388 77.1331 14.0604 75.1595 13.4703 72.7975C12.8851 70.4554 13.2618 68.0191 14.4794 65.9392L15.5358 64.2125C16.7136 62.2578 18.58 60.8365 20.772 60.2158C20.8484 60.1944 20.9158 60.1567 20.9928 60.1376L21.063 60.1201L21.0653 60.1195L21.1102 60.1084L16.1089 40.0898C14.9382 35.4042 10.1575 32.5383 5.44383 33.7111C2.4458 34.4571 0.609877 37.5068 1.35709 40.4976L9.64382 73.6662C11.1782 79.8077 14.5225 85.2268 19.2922 89.3928L42.6875 109.747L64.5221 104.314L62.6926 96.992Z" fill="#38923D"/>
<path d="M91.548 110.127L87.9354 124.587L87.9121 124.676L87.9132 124.676L87.9036 124.714L109.146 130L112.759 115.541L112.781 115.453L112.791 115.413L91.548 110.127Z" fill="#38923D"/>
<path d="M150.765 33.3234C146.05 32.1503 141.271 35.0165 140.1 39.7022L135.099 59.7207L135.237 59.7551C137.52 60.3429 139.458 61.8083 140.672 63.8248L141.728 65.5515C142.948 67.6319 143.325 70.0683 142.74 72.4104C142.149 74.7724 140.671 76.746 138.62 77.9926L118.272 90.4296L117.557 90.9767L117.465 91.0403L116.95 90.1835C116.353 89.4706 116.106 88.5316 116.273 87.611C116.42 86.6865 116.977 85.8839 117.77 85.3909L136.247 74.0767C137.281 73.4565 138.01 72.4676 138.301 71.3062C138.591 70.1448 138.412 68.9287 137.791 67.8968L136.749 66.1947C135.994 64.941 134.628 64.1205 133.164 64.0282C132.255 63.9683 131.364 64.1865 130.58 64.6386L105.87 79.7745C99.6646 83.5622 95.2762 89.5581 93.5158 96.6046L91.6863 103.927L113.52 109.36L136.915 89.0051C141.687 84.8391 145.032 79.4203 146.566 73.2785L154.853 40.1102C155.6 37.1194 153.763 34.0694 150.765 33.3234Z" fill="#38923D"/>
</svg>
