<svg width="226" height="130" viewBox="0 0 226 130" fill="none" xmlns="http://www.w3.org/2000/svg">
<path d="M225.413 0.0652496L225.387 0.0753232V0L173.193 20.7331L172.452 21.0256V21.0274L172.387 21.0528L172.56 21.4701L172.562 21.4736L155.834 25.3975C154.954 25.6077 154.25 26.1674 153.793 26.9386C153.334 27.7439 153.265 28.6198 153.545 29.4957L153.69 29.8784L153.722 30.0444L118.01 19.8992C116.463 19.4596 114.802 19.6444 113.392 20.4142L101.496 26.9018L68.8293 31.2978L64.5165 31.8693C64.5147 31.3801 64.3413 30.8585 64.0952 30.4407C63.6016 29.599 62.8281 29.0744 61.9115 28.8637L58.4273 28.2392L45.584 25.6738L45.606 25.6068L11.1082 13.9994L0.0704415 10.2634V10.287L0 10.2634V88.2063L28.7375 89.1181L28.8788 88.6635L41.2752 89.6436H41.557C42.1553 89.6436 42.7536 89.5034 43.2476 89.1886L47.7444 91.4947L47.7545 91.4995L46.2413 94.3032C44.8673 96.8266 45.7821 99.9087 48.2841 101.274L52.0171 103.236C54.0379 104.344 56.4104 103.908 57.9875 102.447C58.0029 102.435 58.0147 102.422 58.0306 102.409C58.1631 102.285 58.2886 102.153 58.4075 102.013C58.5365 101.879 58.6721 101.756 58.7874 101.612C57.6696 104.067 58.5844 106.977 60.9966 108.212L64.6939 110.242C66.7147 111.32 69.1357 110.88 70.7281 109.358C70.7435 109.346 70.7572 109.332 70.7713 109.32C70.9104 109.183 71.0429 109.037 71.1684 108.882C71.3044 108.735 71.4519 108.6 71.5725 108.439C70.7334 110.794 71.6364 113.486 73.9213 114.691L77.6547 116.689C79.3105 117.626 81.264 117.416 82.7996 116.442C83.1558 116.236 83.5014 116.001 83.821 115.728C83.7039 117.669 84.7152 119.571 86.4934 120.577L90.1924 122.573C92.7274 123.904 95.8621 122.994 97.1996 120.507L98.8193 117.565L120.725 128.844C122.345 129.649 124.071 130 125.762 130C128.824 130 131.818 128.81 134.002 126.427L159.053 99.2146L171.872 85.3409L172.529 87.5082C172.986 88.805 174.219 89.6445 175.593 89.6445C175.875 89.6445 176.121 89.6086 176.438 89.5402L194.187 84.5303L198.269 96.4403L198.389 96.7963L198.391 96.7946L198.413 96.8612L225.388 86.843V23.591L225.413 0.0652496ZM137.122 107.879C136.977 107.646 136.705 107.504 136.465 107.299L115.945 94.4223C115.51 94.1504 114.942 94.2239 114.592 94.5984L111.151 98.295C110.698 98.7824 110.799 99.5606 111.365 99.9144L129.243 111.157L132.386 113.148L126.429 119.559C126.147 119.84 125.724 119.944 125.408 119.734L104.06 108.841L103.643 108.627L104.137 107.719C104.63 106.843 104.911 105.861 104.981 104.915C105.229 102.147 103.821 99.3456 101.18 97.9091C100.509 97.5601 99.8055 97.314 99.1006 97.2093C97.2419 96.8266 95.3712 97.2317 93.8268 98.2525C93.6894 98.3296 93.5415 98.3707 93.4072 98.4548L94.7694 95.9126C96.6369 92.3737 95.3677 87.9952 91.846 86.1388C90.756 85.5078 89.5228 85.227 88.3949 85.227C86.397 85.227 84.4862 86.0788 83.1021 87.545C82.7529 87.8888 82.4315 88.2597 82.1476 88.667C83.5115 85.34 82.1766 81.449 78.9218 79.6237C76.1121 78.1833 72.8189 78.6878 70.6163 80.6773C70.5472 80.7356 70.482 80.7938 70.4147 80.8534C70.2341 81.0294 70.0691 81.2213 69.9057 81.4196C69.7732 81.565 69.6323 81.7004 69.5104 81.8576L69.8718 81.2348C71.7376 77.6955 70.434 73.3529 66.9124 71.4611C63.3564 69.535 58.9199 70.8295 57.0523 74.333L52.6158 82.5316L47.4041 79.8339L61.0675 42.1059H64.9418L79.0046 40.2312L87.0005 39.2051L81.0716 50.5835C79.0631 54.6475 80.8242 59.4455 84.9802 61.2668C86.0016 61.7218 87.0935 61.9325 88.1149 61.9325C90.6499 61.9325 93.0797 60.7422 94.6285 58.6055L101.742 48.3408L116.957 45.5034L136.713 56.8183L145.235 61.7223L164.745 72.9325L166.331 76.1553L158.758 84.4234L137.603 71.1611C137.168 70.8891 136.6 70.9627 136.251 71.3371L132.826 74.8625C132.372 75.3499 132.474 76.1281 133.039 76.4837L150.954 87.7215L153.884 89.5757L148.44 95.6323L127.213 82.3025C126.78 82.0288 126.211 82.1024 125.86 82.4768L122.227 86.2825C121.774 86.7703 121.877 87.5498 122.443 87.9041L140.347 99.1126L143.392 101.033L138.574 106.315L137.122 107.879ZM57.0484 34.4798L39.3728 83.128L31.4147 82.4624L30.5514 82.3634L30.4999 82.3516L43.8454 32.157L46.0635 32.5078L55.5365 34.1995L57.0484 34.4798ZM192.139 78.5026L177.669 82.6007L160.8 31.1068L160.695 30.8261L174.641 27.5337L191.317 76.0992L192.139 78.5026Z" fill="#38923D"/>
</svg>
