<svg width="217" height="234" viewBox="0 0 217 234" fill="none" xmlns="http://www.w3.org/2000/svg">
<path d="M140.573 69.7884C140.573 69.7884 140.587 69.8018 140.59 69.8146C138.836 71.2082 137.671 73.1898 136.192 74.8448C136.035 75.0238 136.118 75.3365 136.302 75.4584C136.512 75.6071 136.756 75.5317 136.915 75.3487C138.344 73.7618 139.425 71.861 141.007 70.411C141.898 71.5948 143.569 71.8583 144.995 71.4727C146.27 71.1242 147.485 70.364 148.092 69.1548C148.598 68.1469 148.491 67.0708 147.973 66.1083C147.507 65.2346 146.847 64.4059 146.052 63.8119C145.427 63.3432 144.495 63.0424 143.839 63.5809C143.446 63.5322 143.046 63.5814 142.667 63.7786C141.985 64.1291 141.466 64.7574 141.103 65.4222C140.394 66.7173 140.043 68.3709 140.577 69.7908L140.573 69.7884ZM141.29 68.0982C141.3 67.9313 141.321 67.7651 141.345 67.6012C141.375 67.4083 141.386 67.3713 141.42 67.2289C141.499 66.9134 141.606 66.6078 141.732 66.314C141.768 66.2324 141.807 66.1468 141.847 66.0676C141.907 65.9456 141.847 66.0676 141.914 65.9439C141.986 65.8184 142.058 65.693 142.145 65.5705C142.23 65.4417 142.324 65.3175 142.423 65.202C142.437 65.1777 142.457 65.1622 142.475 65.1402C142.567 65.0369 142.401 65.2112 142.493 65.1183C142.539 65.075 142.584 65.0254 142.635 64.9844C142.736 64.8922 142.844 64.8086 142.957 64.7338C142.984 64.7165 143.014 64.7015 143.038 64.6883C143.089 64.6642 143.143 64.636 143.195 64.6119C143.225 64.597 143.257 64.5884 143.291 64.5758C143.396 64.534 143.188 64.5968 143.298 64.5741C143.353 64.5628 143.404 64.5491 143.463 64.5401C143.499 64.5339 143.675 64.5277 143.535 64.5276C143.589 64.5267 143.648 64.5281 143.7 64.5313C143.735 64.5355 143.764 64.5414 143.8 64.5456C143.916 64.5589 143.695 64.5121 143.808 64.5503C143.863 64.5662 143.923 64.5844 143.976 64.6043C144.011 64.619 144.177 64.7043 144.06 64.6366C144.117 64.6693 144.173 64.702 144.228 64.7387C144.7 65.0601 145.159 64.4617 144.898 64.0734C145.277 64.2113 145.622 64.4916 145.902 64.7721C146.527 65.4083 147.08 66.2075 147.398 67.0492C147.441 67.1711 147.459 67.2141 147.486 67.3915C147.527 67.6577 147.511 67.9457 147.449 68.212C147.335 68.718 147.046 69.1717 146.672 69.5218C145.904 70.244 144.821 70.6711 143.771 70.7065C143.397 70.7176 143.008 70.6817 142.712 70.5865C142.63 70.5607 142.55 70.5308 142.471 70.5008C142.436 70.4862 142.401 70.4716 142.366 70.4569C142.238 70.399 142.419 70.4873 142.342 70.4429C142.213 70.3682 142.092 70.2877 141.974 70.1927C141.962 70.1857 141.938 70.1612 141.925 70.1478C141.907 70.1321 141.889 70.1164 141.873 70.0966C141.828 70.0437 141.785 69.9971 141.742 69.9402C141.721 69.9117 141.628 69.7826 141.65 69.8111C141.669 69.8436 141.587 69.7048 141.574 69.6705C141.509 69.541 141.454 69.4121 141.41 69.2734C141.438 69.3651 141.386 69.1841 141.377 69.1521C141.363 69.0843 141.348 69.0164 141.335 68.9445C141.274 68.6017 141.269 68.4528 141.292 68.1046L141.29 68.0982Z" fill="white"/>
<path d="M145.077 87.6252C144.933 88.0059 144.956 88.3862 145.038 88.7679C144.479 88.4456 143.841 88.1687 143.206 88.2772C141.676 88.5371 140.927 90.2359 140.818 91.6193C140.762 92.3151 140.843 93.063 141.15 93.699C141.373 94.1624 141.737 94.5129 142.141 94.8218C141.956 95.1246 141.747 95.4199 141.586 95.7368C141.474 95.9582 141.653 96.2181 141.854 96.3012C142.088 96.399 142.32 96.2413 142.418 96.0336C142.447 95.9746 142.475 95.9157 142.504 95.8567C142.506 95.8526 142.509 95.8486 142.513 95.8405C142.532 95.8081 142.551 95.7757 142.569 95.7434C142.647 95.5994 142.725 95.4554 142.807 95.3138C142.816 95.2976 142.823 95.2855 142.83 95.2733C144.247 95.9402 146.191 95.8328 147.261 94.5781C147.908 93.8131 147.922 92.8343 147.675 91.8985C148.529 92.0459 149.397 91.5977 149.803 90.8287C150.588 89.3392 150.159 86.8205 148.408 86.2194C147.569 85.9346 146.61 86.1095 145.894 86.6129C145.539 86.8617 145.25 87.2232 145.096 87.6305L145.077 87.6252ZM147.433 91.1597C147.255 90.7387 147.041 90.3344 146.806 89.9938C146.733 89.8869 146.619 89.9072 146.52 89.9474C146.307 89.7001 146.093 89.4906 145.833 89.297C146.065 89.156 146.14 88.8863 146.059 88.6344C146.08 88.7006 146.034 88.5283 146.031 88.5051C146.025 88.4691 146.02 88.4396 146.014 88.4036C146.012 88.37 146.01 88.3363 146.005 88.3068C146.006 88.3613 146.008 88.3572 146.01 88.2987C146.012 88.2674 146.014 88.2361 146.016 88.2048C146.018 88.1903 146.041 88.0305 146.029 88.0884C146.012 88.1648 146.045 88.0224 146.045 88.0224C146.058 87.9813 146.074 87.9362 146.091 87.8974C146.095 87.8893 146.116 87.8529 146.128 87.8327C146.168 87.7639 146.205 87.6991 146.257 87.6374C146.269 87.6171 146.362 87.5202 146.278 87.6009C146.305 87.5732 146.331 87.5455 146.36 87.5242C146.42 87.4671 146.488 87.4147 146.554 87.3663C146.58 87.349 146.606 87.3317 146.628 87.3121C146.584 87.3409 146.587 87.3369 146.641 87.3087C146.667 87.2914 146.697 87.2765 146.721 87.2633C146.805 87.2202 146.891 87.1835 146.981 87.1491C146.972 87.1548 147.12 87.1051 147.056 87.1222C146.992 87.1393 147.143 87.1023 147.137 87.104C147.213 87.0834 147.295 87.0716 147.371 87.0615C147.411 87.0576 147.451 87.0538 147.491 87.0499C147.582 87.0427 147.385 87.0477 147.536 87.0483C147.632 87.0499 147.726 87.0555 147.821 87.0676C147.852 87.0694 147.885 87.0777 147.914 87.0836C148.061 87.1092 147.832 87.0577 147.976 87.0978C148.054 87.1213 148.128 87.1425 148.202 87.1741C148.23 87.1905 148.263 87.1987 148.287 87.2127C148.198 87.1718 148.336 87.2408 148.34 87.2431C148.425 87.2922 148.503 87.3533 148.575 87.4162C148.529 87.3737 148.671 87.5204 148.688 87.5466C148.801 87.6873 148.818 87.7134 148.902 87.8859C149.067 88.2077 149.138 88.4485 149.191 88.7971C149.242 89.1288 149.246 89.4116 149.187 89.766C149.15 89.9982 149.027 90.3425 148.902 90.5298C148.737 90.7794 148.592 90.9173 148.328 91.0291C148.083 91.1358 147.739 91.1425 147.422 91.159L147.433 91.1597ZM143.19 94.1164C143.205 94.1843 143.214 94.2539 143.228 94.3218C143.22 94.3171 143.208 94.3101 143.2 94.3054C143.193 94.2422 143.231 94.1775 143.19 94.1164ZM142.717 94.0211C142.764 94.005 142.815 93.9914 142.862 93.9753C142.811 93.9786 142.776 94.0121 142.728 94.0385C142.72 94.0338 142.719 94.0275 142.71 94.0228L142.717 94.0211ZM145.061 90.0922C145.442 90.4039 145.791 90.7891 146.064 91.2221C146.215 91.4655 146.581 91.4666 146.796 91.3371C146.796 91.3371 146.796 91.3371 146.801 91.329C147.147 92.4299 147.191 93.6906 146.128 94.3449C145.28 94.8697 144.16 94.7732 143.271 94.3411C143.271 94.3411 143.273 94.337 143.276 94.333C143.387 94.0843 143.074 93.7954 142.835 93.9277C142.794 93.9524 142.753 93.9772 142.713 94.0083C141.858 93.3312 141.692 92.2264 141.907 91.1906C142.016 90.6654 142.238 90.1135 142.613 89.7257C142.896 89.4308 143.315 89.2298 143.683 89.3021C144.152 89.3952 144.67 89.759 145.069 90.0865L145.061 90.0922Z" fill="white"/>
<path d="M155.338 84.577C155.426 84.2285 155.456 83.8682 155.336 83.5344C155.291 83.4062 155.17 83.3738 155.058 83.3901C154.995 83.2838 154.961 83.1561 154.879 83.0653C154.515 82.6668 154.033 82.4474 153.506 82.3593C152.659 82.2205 151.707 82.5131 151.16 83.1899C150.498 84.0106 150.834 85.2406 151.516 85.9367C151.883 86.3104 152.377 86.5849 152.915 86.5878C153.428 86.5872 153.907 86.4108 154.325 86.1176C154.76 85.813 155.11 85.3086 155.293 84.7669C155.308 84.7322 155.339 84.7069 155.349 84.6698C155.355 84.6409 155.34 84.6107 155.344 84.5857L155.338 84.577ZM154.355 84.9158C154.324 84.9516 154.25 85.033 154.317 84.9638C154.241 85.0388 154.165 85.1138 154.088 85.1824C154.007 85.2487 153.923 85.3086 153.834 85.3702C153.934 85.2988 153.804 85.3851 153.771 85.4041C153.726 85.4265 153.681 85.4489 153.635 85.4713C153.586 85.4914 153.543 85.5098 153.494 85.5298C153.485 85.5356 153.389 85.5613 153.466 85.5407C153.542 85.5202 153.447 85.5459 153.436 85.5452C153.36 85.5658 153.281 85.5799 153.201 85.5877C153.184 85.5888 153.161 85.5916 153.138 85.5943C153.09 85.5936 153.046 85.5951 153 85.5903C152.975 85.5867 152.84 85.5786 152.795 85.5633C152.791 85.561 152.787 85.5586 152.782 85.5563C152.76 85.5487 152.737 85.541 152.711 85.5311C152.67 85.5181 152.627 85.4988 152.584 85.4795C152.584 85.4795 152.576 85.4748 152.568 85.4702C152.527 85.4468 152.487 85.4234 152.451 85.392C152.411 85.3686 152.377 85.3331 152.339 85.3057C152.324 85.286 152.306 85.2702 152.29 85.2505C152.217 85.1708 152.166 85.0819 152.1 85.0004C152.061 84.9562 152.145 85.0806 152.1 85.0004C152.085 84.9702 152.066 84.9377 152.049 84.9115C152.021 84.8575 151.994 84.8099 151.973 84.7542C151.954 84.7112 151.936 84.6682 151.917 84.6253C151.867 84.4883 151.926 84.6948 151.901 84.5782C151.88 84.4848 151.869 84.3921 151.853 84.297C151.839 84.2187 151.848 84.4181 151.856 84.2929C151.858 84.2512 151.859 84.2135 151.865 84.1742C151.864 84.1573 151.867 84.1429 151.872 84.1244C151.882 84.0977 151.886 84.0728 151.896 84.0462C151.908 84.0156 151.918 83.9889 151.93 83.9583C151.965 83.8976 152.01 83.8479 152.049 83.7896C152.08 83.7642 152.105 83.7406 152.133 83.7192C152.164 83.6939 152.199 83.6708 152.232 83.6414C152.232 83.6414 152.232 83.6414 152.234 83.6374C152.297 83.6035 152.36 83.5696 152.424 83.542C152.465 83.5277 152.504 83.507 152.544 83.4927C152.544 83.4927 152.547 83.4886 152.553 83.4869C152.627 83.4705 152.698 83.4516 152.769 83.4392C152.816 83.4336 152.946 83.433 152.999 83.4153C153.003 83.4176 153.014 83.4183 153.02 83.4165C153.062 83.419 153.102 83.4152 153.141 83.4217C153.224 83.4267 153.31 83.4381 153.395 83.4495C153.432 83.4601 153.475 83.4689 153.51 83.4836C153.584 83.5048 153.657 83.5364 153.727 83.5657C153.759 83.5844 153.791 83.603 153.828 83.6241C153.864 83.6451 153.896 83.6742 153.93 83.6993C153.969 83.7539 154.03 83.8058 154.069 83.8604C154.073 83.8627 154.079 83.8715 154.081 83.8778C154.095 83.908 154.113 83.9342 154.124 83.9621C154.14 83.9986 154.155 84.0393 154.171 84.0759C154.215 84.1873 154.142 83.9401 154.175 84.0886C154.192 84.1797 154.21 84.2707 154.223 84.3595C154.225 84.3931 154.227 84.5397 154.234 84.4522C154.249 84.3422 154.236 84.5235 154.239 84.5195C154.238 84.5299 154.246 84.7397 154.241 84.5531C154.246 84.6853 154.293 84.7991 154.358 84.9013L154.355 84.9158Z" fill="white"/>
<path d="M135.073 105.141C135.19 104.696 135.349 104.27 135.521 103.84C135.669 103.893 135.824 103.924 135.979 103.954C135.789 104.34 135.656 104.765 135.5 105.166C135.304 105.684 135.089 106.197 134.882 106.714C134.499 107.685 134.218 108.667 134.025 109.694C133.626 111.805 133.397 113.966 133.559 116.115C133.61 116.765 134.582 116.576 134.549 115.942C134.439 113.871 134.6 111.817 134.966 109.773C135.146 108.76 135.439 107.796 135.784 106.824C136.081 105.982 136.607 104.969 136.612 104.054C136.96 104.067 137.309 104.052 137.653 103.96C140.452 103.196 142.688 99.5937 141.293 96.862C141.329 96.6779 141.305 96.486 141.11 96.309C139.507 94.8439 136.137 94.2902 134.486 95.9642C133.728 96.7351 133.374 97.8527 133.192 98.8968C133.007 99.9553 133.008 101.186 133.519 102.161C133.838 102.766 134.341 103.213 134.911 103.542C134.415 104.459 134.208 105.499 133.871 106.475C133.699 106.97 134.473 107.244 134.635 106.749C134.805 106.222 134.936 105.677 135.073 105.141ZM134.343 101.294C134.078 100.417 134.171 99.3971 134.403 98.5277C134.6 97.7838 134.909 96.9315 135.594 96.5016C136.93 95.6648 139.218 96.1013 140.33 97.1476C140.462 97.2728 140.605 97.3064 140.74 97.3146C141.063 98.5208 140.761 99.8298 140.083 100.863C139.431 101.862 138.407 102.766 137.201 102.987C135.995 103.207 134.705 102.489 134.339 101.291L134.343 101.294Z" fill="white"/>
<path d="M151.348 87.4903C151.299 87.6025 151.261 87.7154 151.235 87.8352C151.212 87.9302 151.11 88.0225 151.029 88.0615C150.94 88.1023 150.823 88.1099 150.731 88.073C150.522 87.9851 150.43 87.7807 150.493 87.5689C150.572 87.3015 150.705 87.0436 150.871 86.8212C150.962 86.7011 151.062 86.592 151.171 86.4876C151.28 86.3831 151.404 86.2712 151.547 86.2191C151.684 86.1687 151.853 86.1851 151.948 86.3101C152.033 86.4241 152.056 86.5992 151.961 86.717C151.873 86.8331 151.752 86.9201 151.648 87.0269C151.588 87.084 151.691 86.9708 151.645 87.0309C151.625 87.0569 151.598 87.0846 151.578 87.1106C151.541 87.1545 151.509 87.2007 151.477 87.2469C151.449 87.2955 151.417 87.3417 151.389 87.3903C151.38 87.4064 151.373 87.4186 151.363 87.4348C151.394 87.3822 151.396 87.3781 151.375 87.4145C151.361 87.4388 151.349 87.459 151.346 87.484L151.348 87.4903Z" fill="white"/>
<path d="M156.422 81.7386C156.528 81.4603 156.59 81.1668 156.612 80.8667C156.673 80.8641 156.725 80.9049 156.788 80.8982C157.167 80.8581 157.549 80.6633 157.768 80.3415C157.885 80.1664 157.93 79.9765 157.947 79.7871C157.968 79.7883 157.984 79.8081 158.003 79.803C158.253 79.7907 158.525 79.581 158.52 79.3086C158.518 79.0049 158.488 78.7289 158.384 78.4421C158.311 78.2326 158.191 78.0287 158.053 77.8571C157.804 77.5408 157.44 77.2929 157.054 77.1776C156.392 76.9788 155.607 77.0762 155.077 77.5364C154.783 77.793 154.6 78.1295 154.527 78.5082C154.45 78.9118 154.542 79.3318 154.694 79.7051C154.874 80.1492 155.19 80.4716 155.614 80.6896C155.687 80.7317 155.782 80.706 155.858 80.7336C155.855 80.7585 155.849 80.7874 155.845 80.8123C155.84 80.8581 155.859 80.7504 155.84 80.8204C155.835 80.8494 155.827 80.872 155.821 80.9009C155.768 81.1134 155.693 81.3182 155.604 81.5201C155.415 81.94 155.184 82.3406 154.987 82.7558C154.884 82.982 155.048 83.2388 155.255 83.3203C155.482 83.4134 155.729 83.265 155.819 83.0527C156.007 82.6055 156.24 82.1841 156.416 81.7299L156.422 81.7386ZM157.247 79.879C157.247 79.879 157.223 79.9027 157.22 79.9067C157.196 79.9304 157.17 79.9477 157.141 79.969C157.128 79.9724 157.12 79.9782 157.111 79.9839C157.074 80.0006 157.04 80.0132 157.004 80.0298C156.991 80.0332 156.974 80.0343 156.959 80.0418C156.921 80.0521 156.885 80.0583 156.849 80.0645C156.813 80.0707 156.773 80.0746 156.733 80.0785C156.716 80.0796 156.621 80.0844 156.699 80.0807C156.773 80.0746 156.699 80.0807 156.689 80.08C156.603 80.0791 156.519 80.0741 156.437 80.0586C156.422 80.0557 156.408 80.0527 156.393 80.0498C156.36 80.0415 156.327 80.0332 156.29 80.0226C156.216 80.0015 156.147 79.9722 156.08 79.9389C156.088 79.9435 156.08 79.9389 156.1 79.9505C156.08 79.9389 156.059 79.9272 156.039 79.9155C156.007 79.8968 155.975 79.8781 155.94 79.8531C155.912 79.8367 155.882 79.814 155.858 79.7895C155.85 79.7849 155.838 79.7779 155.828 79.7668C155.779 79.7115 155.728 79.6603 155.681 79.601C155.654 79.5638 155.608 79.4564 155.668 79.5876C155.651 79.551 155.632 79.5185 155.613 79.4859C155.574 79.4041 155.552 79.3107 155.513 79.2288C155.51 79.216 155.506 79.2033 155.503 79.1905C155.493 79.1522 155.485 79.1098 155.475 79.0716C155.467 79.0292 155.463 78.9892 155.455 78.9469C155.454 78.9301 155.453 78.9028 155.455 78.882C155.455 78.8339 155.452 78.7834 155.459 78.7336C155.463 78.7087 155.469 78.6798 155.472 78.6549C155.477 78.6468 155.479 78.6427 155.48 78.6323C155.494 78.5808 155.515 78.5339 155.537 78.4871C155.551 78.4628 155.565 78.4385 155.583 78.4166C155.595 78.3963 155.61 78.3785 155.629 78.3565C155.673 78.3173 155.711 78.2798 155.759 78.2429C155.764 78.2348 155.776 78.2314 155.787 78.2216C155.787 78.2216 155.796 78.2158 155.802 78.2141C155.856 78.186 155.91 78.1578 155.97 78.1384C155.998 78.1275 156.024 78.1206 156.052 78.1097C155.884 78.1751 155.985 78.1309 156.03 78.1189C156.094 78.1018 156.159 78.0911 156.223 78.0844C156.246 78.0816 156.263 78.0805 156.283 78.0818C156.348 78.0815 156.411 78.0852 156.475 78.0954C156.5 78.0989 156.531 78.1008 156.56 78.1067C156.62 78.125 156.682 78.1391 156.739 78.1614C156.77 78.1737 156.796 78.1837 156.827 78.196C156.831 78.1983 156.835 78.2007 156.839 78.203C156.88 78.2264 156.924 78.2521 156.965 78.2754C156.993 78.2918 157.019 78.3122 157.041 78.3302C157.049 78.3349 157.053 78.3372 157.059 78.3459C157.096 78.3838 157.138 78.4239 157.173 78.4658C157.19 78.492 157.214 78.5164 157.231 78.5426C157.263 78.5989 157.293 78.6593 157.319 78.7174C157.334 78.7476 157.342 78.7795 157.353 78.8074C157.384 78.9223 157.398 79.0382 157.416 79.1565C157.41 79.1855 157.372 79.1957 157.376 79.2253C157.392 79.3477 157.398 79.3836 157.387 79.5064C157.383 79.5313 157.382 79.5522 157.378 79.5771C157.375 79.5916 157.358 79.668 157.375 79.5916C157.365 79.6286 157.352 79.6697 157.341 79.7068C157.336 79.7149 157.322 79.7391 157.317 79.7577C157.298 79.79 157.28 79.8224 157.253 79.8501L157.247 79.879Z" fill="white"/>
<path d="M29.3284 115.054C31.7696 118.908 33.1521 122.895 34.8877 127.101C38.6133 136.121 44.5373 144.014 49.7776 152.176C52.0591 155.726 54.8941 159.122 58.129 161.853C59.3661 162.896 61.9444 164.261 63.5549 165.881C63.5862 166.126 63.6814 166.354 63.6959 166.599C63.7069 166.73 63.9295 166.718 63.9225 166.59C63.9196 166.464 63.868 166.348 63.8587 166.224C64.5407 166.995 65 167.816 64.9387 168.698C64.9084 169.096 65.214 169.305 65.5275 169.313C65.9908 170.66 66.4436 172.006 66.926 173.347C66.9751 173.645 66.9795 173.955 67.0308 174.249C67.0574 174.399 67.1866 174.409 67.2923 174.357C67.8182 175.81 68.3482 177.265 68.8805 178.716C68.9245 180.911 68.9707 183.101 68.9561 185.294C68.3015 187.932 67.8528 190.662 66.5445 193.068C66.3446 193.433 66.0922 193.767 65.8623 194.109C65.8389 194.15 65.8034 194.183 65.7824 194.22C65.7801 194.224 65.7865 194.222 65.7818 194.23C65.7795 194.234 65.7748 194.242 65.7725 194.246C65.6781 194.354 65.5976 194.474 65.5032 194.582C65.4852 194.604 65.5239 194.621 65.5099 194.645C64.6556 195.835 63.6926 196.952 62.758 198.085C62.8165 198.086 62.8642 198.06 62.9267 198.063C63.0455 198.073 63.1651 198.136 63.2803 198.17C64.1979 197.076 65.1237 195.987 65.9431 194.82C66.4508 194.174 66.9746 193.538 67.4384 192.856C67.6659 192.518 67.8813 192.173 68.0724 191.814C68.1355 191.704 68.1662 191.576 68.2235 191.458C67.9797 192.451 67.6265 193.417 67.0481 194.335C67.006 194.408 67.0597 194.455 67.0832 194.517C66.7659 194.955 66.44 195.398 66.1228 195.835C65.4522 196.754 64.7146 197.639 64.0238 198.546C64.148 198.639 64.2919 198.717 64.3812 198.833C64.5189 199.015 64.6181 199.245 64.7005 199.476C66.082 197.662 67.4677 195.851 68.7764 193.995C68.8954 193.826 69.0191 193.65 69.1421 193.483C69.338 193.461 69.5205 193.351 69.5419 193.099C69.548 193.032 69.5477 192.967 69.5515 192.905C73.5511 187.267 77.8166 181.383 80.8256 175.059C80.9784 174.953 81.0985 174.802 81.0712 174.559C81.0718 174.549 81.0725 174.538 81.0731 174.528C81.6917 173.186 82.2588 171.83 82.7437 170.448C83.0002 170.116 83.2641 169.799 83.5402 169.489C93.3221 162.889 105.918 164.868 117.033 163.155C128.593 161.369 138.292 155.045 149.184 151.249C159.447 147.674 167.587 141.378 174.388 132.933C178.159 128.252 181.153 123.01 184.979 118.373C187.128 115.772 189.448 113.248 192.038 111.08C193.993 109.441 195.617 108.431 196.756 106.132C196.899 105.847 196.669 105.515 196.414 105.406C193.768 104.299 191.31 105.847 189.235 107.47C184.895 110.867 181.235 115.067 177.141 118.746C168.132 126.849 156.231 130.354 144.416 131.89C139.41 132.544 134.338 132.994 129.563 134.753C124.092 136.773 119.05 140.18 114.301 143.519C111.443 145.527 108.643 147.601 105.894 149.737C105.709 149.862 105.504 149.965 105.316 150.094C105.264 150.128 105.307 150.175 105.302 150.22C103.216 151.854 101.141 153.504 99.1352 155.249C96.9379 157.159 94.6591 159.657 92.1892 161.749C91.3208 161.955 90.4769 162.239 89.6485 162.581C89.977 162.198 90.3056 161.816 90.6382 161.436C96.2279 155.146 102.907 149.987 109.482 144.784C115.741 139.829 121.816 134.699 126.784 128.411C127.473 127.535 128.144 126.644 128.816 125.759C131.529 124.05 134.248 122.162 136.619 120.018C137.869 118.89 139.019 117.654 140.169 116.43C140.969 115.575 141.654 114.595 142.481 113.761C143.279 114.022 144.121 114.163 145.017 113.974C146.171 113.733 147.327 113.095 148.025 112.128C148.308 111.741 148.506 111.294 148.686 110.842C149.97 111.907 151.888 111.547 153.122 110.625C154.288 109.755 155.096 108.392 155.405 106.979C155.764 105.33 155.29 103.74 154.227 102.441C153.983 102.144 153.702 101.885 153.402 101.647C153.728 101.792 154.042 101.978 154.387 102.043C155.943 102.348 157.345 101.452 158.13 100.147C159.591 97.7098 159.479 93.2695 156.234 92.4261C156.388 92.159 156.548 91.9006 156.718 91.6429C156.751 91.5863 156.794 91.5302 156.833 91.4719C157.143 92.131 157.674 92.6966 158.303 92.9625C159.554 93.4855 161.002 92.7726 161.806 91.7909C162.179 91.3318 162.469 90.7443 162.491 90.1469C162.511 89.5326 162.225 89.0005 161.753 88.6206C161.715 88.566 161.73 88.4936 161.685 88.4407C161.257 87.9294 160.576 87.6981 159.931 87.6657C158.694 87.6041 157.313 88.1556 156.755 89.3174C156.573 89.698 156.548 90.1151 156.592 90.5343C156.426 90.7567 156.26 90.9791 156.098 91.2038C155.906 91.4603 155.705 91.7057 155.502 91.9552C155.446 92.0251 155.451 92.1091 155.45 92.1949C154.103 91.9676 152.673 91.7626 151.474 92.5699C150.097 93.4963 149.505 95.3071 149.736 96.8972C149.79 97.2793 149.954 97.6596 150.094 98.0427C150.08 98.067 150.058 98.1138 150.082 98.0629C150.045 98.1277 150.008 98.1924 149.97 98.2572C149.772 98.5635 149.535 98.8423 149.295 99.1189C148.834 99.646 148.371 100.102 147.895 100.636C147.803 100.74 147.824 100.881 147.879 101.01C147.002 101.437 146.245 102.074 145.625 102.849C144.081 102.281 141.841 102.677 140.655 103.254C137.956 104.566 137.804 108.034 138.88 110.468C138.981 110.694 139.146 110.876 139.272 111.088C137.348 112.421 135.887 114.886 134.507 116.603C131.569 120.281 128.808 124.092 125.888 127.786C119.878 135.392 112.215 141.171 104.69 147.169C98.1173 152.406 92.3188 157.955 86.8072 164.269C86.061 165.122 85.0047 166.12 83.9475 167.204C86.6746 161.948 89.463 156.717 92.6998 151.755C96.2664 146.288 100.301 141.15 104.118 135.865C107.81 130.75 111.261 125.465 114.467 120.032C116.173 117.143 118.572 113.483 119.379 110.049C120.383 107.768 121.636 105.616 122.699 103.365C123.886 100.851 124.866 98.2281 125.941 95.6655C126.918 93.3377 127.685 90.9911 128.451 88.5899C128.951 87.0228 129.635 85.3892 129.47 83.713C130.566 83.9357 131.693 83.8525 132.622 83.1212C134.351 81.7616 134.896 79.1358 134.687 77.0509C134.532 75.5156 133.794 73.7298 132.285 73.3065C132.561 72.716 132.829 72.1208 133.038 71.497C133.175 71.1012 133.302 70.7048 133.413 70.3054C133.509 69.9616 133.635 69.586 133.694 69.2212C134.98 69.0031 136.212 68.4197 137.135 67.4849C138.332 66.2713 138.866 64.7396 138.823 63.1504C139.159 63.2417 139.499 63.3249 139.842 63.3287C139.236 64.7326 138.528 66.0717 137.739 67.3913C136.841 68.8907 135.922 70.3888 135.306 72.0349C135.122 72.5325 135.88 72.7977 136.075 72.3112C137.325 69.2023 139.699 66.4998 140.526 63.2274C140.723 63.1952 140.922 63.1966 141.118 63.1372C143.875 62.2475 145.745 58.4766 143.734 56.0367C143.703 55.9971 143.671 56.0433 143.636 56.0287C143.51 55.5187 143.289 55.0513 142.849 54.7005C142.046 54.0641 140.986 53.9105 139.953 53.9889C140.216 53.3369 140.529 52.7025 140.861 52.0798C141.139 51.5606 141.416 51.035 141.663 50.5035C141.773 50.2757 141.882 50.031 141.973 49.7811C142.168 49.9372 142.371 50.0917 142.614 50.1837C143.157 50.3837 143.731 50.3428 144.265 50.155C145.197 49.8299 145.978 49.0289 146.448 48.1779C146.967 47.2419 147.207 46.1616 146.838 45.1284C146.469 44.0952 145.501 43.202 144.447 42.9169C143.901 42.769 143.343 42.7649 142.815 42.9782C142.414 43.1404 142.026 43.494 141.794 43.905C141.69 43.7857 141.551 43.6727 141.43 43.5545C141.373 43.392 141.337 43.2203 141.263 43.0693C141.461 43.2487 141.788 43.3081 141.938 43.0387C142.422 42.1738 142.898 41.3106 143.318 40.4148C143.518 39.985 143.693 39.5413 143.821 39.0864C143.884 38.8745 143.944 38.6499 143.97 38.4275C143.979 38.3464 143.944 38.2941 143.942 38.2228C144.895 38.3846 145.895 38.298 146.747 37.8781C147.411 37.5495 147.953 37.021 148.244 36.3309C148.447 35.849 148.458 35.3431 148.407 34.8335C148.538 33.9161 148.504 32.9742 148.056 32.1435C147.568 31.2414 146.74 30.4989 145.739 30.2337C144.795 29.9804 143.823 30.1315 142.999 30.6535C142.043 31.2619 141.398 32.2866 141.025 33.3339C140.716 34.1966 140.626 35.1374 140.935 36.0121C141.184 36.7115 141.716 37.3044 142.354 37.6839C142.621 37.838 142.912 37.9517 143.209 38.0533C143.205 38.0614 143.202 38.0654 143.198 38.0735C143.176 38.1476 143.163 38.2264 143.14 38.3045C143.086 38.5001 143.035 38.6917 142.965 38.878C142.814 39.3086 142.615 39.7174 142.421 40.1286C142.021 40.9712 141.554 41.7805 141.149 42.6208C141.117 42.6775 141.147 42.7275 141.148 42.7819C140.432 41.6024 139.105 40.8739 137.68 40.6608C135.701 40.3601 133.767 41.0836 132.498 42.6381C130.442 45.1524 130.444 49.4375 132.637 51.8799C132.906 52.1807 133.221 52.3733 133.535 52.5764C133.486 52.6886 133.436 52.8048 133.395 52.9217C133.272 53.266 133.189 53.6337 133.111 53.9932C132.939 54.7679 132.823 55.548 132.676 56.3262C132.626 56.5996 132.89 56.8603 133.142 56.8817C133.415 56.9044 133.675 56.6876 133.698 56.4147C133.757 55.6772 133.858 54.9423 133.985 54.2172C134.046 53.8692 134.115 53.5531 134.192 53.2144C134.213 53.1299 134.231 53.043 134.259 52.9568C135.501 53.4415 136.912 53.3607 138.209 52.777C138.904 52.4607 139.57 51.971 140.192 51.4075C140.124 51.5249 140.053 51.6399 139.985 51.7573C139.553 52.5059 139.125 53.3113 138.905 54.1605C138.654 54.2208 138.396 54.2765 138.162 54.363C136.675 54.9123 135.396 56.1648 135.289 57.7975C134.129 57.2465 132.847 57.0943 131.602 57.4655C130.187 57.8894 128.832 58.7794 127.989 60.0142C127.188 61.1865 126.914 62.6249 127.119 64.0167C127.466 66.3862 129.025 68.6566 131.444 69.2224C131.948 69.3405 132.469 69.3821 132.983 69.3606C132.9 69.588 132.801 69.8061 132.725 70.0213C132.58 70.4125 132.45 70.8065 132.309 71.2C132.065 71.8845 131.781 72.5625 131.488 73.2294C131.438 73.2327 131.392 73.2174 131.34 73.2247C131.287 73.232 131.3 73.2935 131.263 73.3206C130.656 73.0351 130.001 72.8891 129.295 73.0477C128.09 73.3125 127.068 74.1304 126.319 75.0903C124.854 76.9743 124.428 79.7015 126.002 81.6568C126.717 82.5495 127.809 83.2827 128.974 83.6477C128.972 83.6517 128.965 83.6534 128.967 83.6598C129.062 85.5599 128.002 87.4892 127.48 89.2811C126.769 91.7358 125.817 94.0672 124.84 96.4222C123.842 98.824 122.933 101.277 121.798 103.617C120.986 105.284 120.111 106.921 119.302 108.585C120.161 104.835 120.439 100.916 120.016 97.1168C121.774 96.8371 123.439 95.6348 123.696 93.7977C123.823 92.9052 123.555 92.0058 123.107 91.24C122.986 91.0297 122.819 90.8145 122.668 90.5983C122.741 90.4351 122.76 90.2521 122.619 90.095C121.368 88.7201 119.207 87.8663 117.533 88.9821C115.873 90.0905 115.492 92.3304 115.813 94.1666C115.97 95.072 116.332 95.977 117.076 96.5575C117.74 97.0704 118.595 97.2138 119.422 97.1838C119.493 101.881 119.275 106.492 117.846 111.014C117.77 111.256 117.912 111.441 118.096 111.514C117.574 112.503 116.988 113.481 116.534 114.416C115.103 117.362 113.341 120.17 111.617 122.951C108.386 128.164 104.9 133.203 101.256 138.14C94.2559 147.63 88.093 157.258 82.6461 167.683C82.68 167.363 82.7203 167.041 82.7438 166.72C83.2325 165.518 83.8352 164.372 84.391 163.203C84.442 163.19 84.5016 163.208 84.5262 163.147C85.0486 161.943 85.5349 160.643 86.3532 159.599C86.4552 159.469 86.2559 159.338 86.1505 159.455C85.3822 160.328 84.8865 161.401 84.4227 162.466C83.9204 163.477 83.3186 164.435 82.796 165.433C82.8099 164.157 82.7427 162.872 82.5962 161.584C83.2622 156.563 84.2351 151.589 84.9573 146.573C84.9704 146.494 84.9811 146.419 84.9879 146.342C85.0006 146.339 85.0117 146.329 85.0204 146.323C85.1508 146.312 85.2682 146.24 85.3048 146.083C87.7573 142.61 89.3683 138.512 90.5256 134.265C92.6851 129.712 94.8927 125.16 96.8649 120.52C100.937 110.925 105.237 101.506 108.893 91.736C111.85 83.829 114.66 75.7395 114.996 67.2253C115.165 62.9526 114.57 58.7409 114.55 54.4778C114.534 50.8701 115.008 47.275 115.024 43.6589C115.036 41.3025 116.005 34.0655 112.403 33.5775C108.998 33.1117 107.244 39.4476 106.216 41.6865C102.669 49.4367 99.7786 57.4146 99.0224 65.9559C98.1972 75.299 97.9458 84.0778 95.6923 93.2599C94.0179 100.084 93.2121 106.805 92.5469 113.694C92.4067 114.077 92.2439 114.453 92.1262 114.843C92.0632 115.055 92.264 115.128 92.4184 115.066C92.3173 116.157 92.2104 117.239 92.1086 118.34C92.0043 119.483 91.8837 120.654 91.7433 121.841C91.7316 121.862 91.728 121.886 91.7204 121.909C91.7134 121.921 91.7342 121.922 91.7336 121.933C91.2804 125.782 90.5945 129.811 89.5287 133.684C88.0901 136.307 86.5832 139.057 85.6308 141.809C86.9141 132.784 88.026 123.758 87.5836 114.611C87.1738 106.211 85.8822 97.8904 84.619 89.586C83.2158 80.3375 82.4637 71.1197 81.4733 61.829C81.2748 59.9771 80.8574 49.1612 76.6929 50.5443C74.6042 51.2376 74.4304 55.6963 74.309 57.2988C73.9614 61.8622 74.0808 65.6917 72.2884 70.0576C68.8893 78.3462 65.7222 86.1862 65.8639 95.3214C65.935 99.9539 66.946 104.201 68.3219 108.368C68.2405 108.434 68.1861 108.537 68.1878 108.684C68.3684 115.603 65.4423 121.558 63.7738 128.111C62.3348 133.771 61.6565 139.589 61.4046 145.416C61.3454 146.855 61.3257 148.263 61.3425 149.653C60.1722 145.897 57.8679 142.657 56.0991 139.143C54.8551 136.682 54.2326 133.911 52.7359 131.579C51.3958 129.5 49.4723 127.758 47.7907 125.962C44.4927 122.434 41.0464 119.041 37.36 115.915C35.966 114.732 32.2329 110.537 29.8714 111.348C28.0786 111.959 28.5906 113.921 29.3306 115.088L29.3284 115.054ZM93.2583 118.713C95.5217 112.326 97.1773 105.674 99.2926 99.2448C101.749 91.7766 103.902 84.1878 106.495 76.7719C108.766 70.2702 111.249 63.8755 112.02 56.9825C112.739 50.5511 112.373 44.0755 112.808 37.6313C113.3 44.6649 112.329 52.1111 111.91 59.0503C111.422 67.1639 109.747 75.2984 106.985 82.9408C104.325 90.313 101.48 97.6322 98.9644 105.055C97.6417 108.953 96.5904 112.932 95.2267 116.817C94.1987 119.747 93.4557 122.846 92.3241 125.759C92.4594 124.936 92.5946 124.113 92.7142 123.308C92.9466 121.775 93.0972 120.244 93.2624 118.715L93.2583 118.713ZM95.656 100.237C95.5314 100.742 95.3739 101.239 95.2904 101.758C94.9106 104.106 94.959 106.471 94.3013 108.778C94.2771 108.866 94.2361 108.956 94.2056 109.046C94.4552 106.39 94.8051 103.738 95.236 101.095C95.3828 100.813 95.515 100.528 95.6537 100.241L95.656 100.237ZM97.3689 90.7856C97.1446 92.3233 97.0657 93.8802 96.8189 95.4102C96.665 96.3681 96.4001 97.2942 96.1391 98.2226C95.9564 98.6512 95.7256 99.0791 95.526 99.5088C95.712 98.5047 95.8394 97.4992 96.0774 96.4982C96.5324 94.5704 96.9646 92.6726 97.3672 90.7793L97.3689 90.7856ZM111.433 35.7905C111.077 37.3497 110.068 39.5562 109.854 40.1776C108.946 42.8528 107.972 45.5115 106.997 48.1638C105.008 53.5604 102.709 58.9447 101.413 64.5523C100.504 68.5002 100.533 72.5147 100.143 76.5251C99.7647 80.3854 98.7818 83.9939 97.9583 87.6999C98.8653 82.9523 99.5567 78.2043 99.7689 73.212C100.125 64.9147 101.199 57.1774 104.16 49.3586C105.441 45.9815 106.941 42.6824 108.449 39.3984C108.863 38.4938 109.492 36.2457 110.474 35.7122C110.669 35.6087 111.032 35.6723 111.431 35.7841L111.433 35.7905ZM112.606 36.2523C111.878 42.8946 112.384 49.5962 111.735 56.2516C110.99 63.9144 108.089 70.8827 105.658 78.1012C103.153 85.5412 100.919 93.0833 98.4755 100.548C96.6908 106.003 95.2752 111.622 93.4529 117.077C93.6551 115.036 93.8342 112.997 94.0173 110.961C94.4231 109.884 94.8186 108.807 95.0595 107.689C95.4412 105.934 95.4107 104.109 95.6639 102.335C95.8693 100.867 96.2818 99.4704 96.6637 98.0615C97.9819 94.9001 98.9127 91.6715 99.8605 88.264C101.43 82.6204 102.903 77.0987 104.21 71.3787C105.428 66.0448 107.056 60.8234 108.223 55.4759C109.539 49.4319 110.551 43.3258 112.316 37.3904C112.358 37.2422 112.139 37.1642 112.093 37.31C110.492 42.5206 109.481 47.8501 108.357 53.1792C107.156 58.8847 105.424 64.4348 104.102 70.1079C102.857 75.4213 101.775 80.7153 100.145 85.9303C99.1473 89.1255 98.3157 92.2009 97.2717 95.2238C97.6232 92.8586 97.7265 90.5119 98.3572 88.1676C100.803 79.064 100.091 69.4969 102.957 60.5232C104.772 54.8483 107.026 49.319 109.002 43.6998C109.404 42.5558 111.418 38.4314 111.794 35.9126C112.078 36.0176 112.338 36.119 112.606 36.2523ZM91.588 129.753C91.7611 128.893 91.9278 128.034 92.0754 127.18C93.2971 124.335 94.0045 121.307 95.0284 118.375C96.4738 114.246 97.6963 110.063 99.0596 105.908C101.741 97.7504 105.045 89.7951 107.803 81.6648C110.431 73.9077 111.947 65.7406 112.326 57.5639C112.645 50.6585 113.779 43.377 113.011 36.4482C113.333 36.6287 113.593 36.795 113.66 36.8933C113.992 37.3653 113.869 38.5678 113.903 39.1162C114.292 45.1891 113.265 51.2274 113.636 57.2845C114.19 66.323 113.593 74.4761 110.813 83.1598C108.336 90.8967 105.418 98.5946 102.177 106.041C98.7989 113.797 95.4716 121.588 91.8477 129.228C91.764 129.401 91.6653 129.582 91.5793 129.759L91.588 129.753ZM119.186 96.2381C118.5 96.22 117.787 96.0077 117.349 95.4477C116.893 94.8656 116.749 94.049 116.711 93.3308C116.634 91.9216 117.052 90.1507 118.514 89.581C119.704 89.1185 120.807 89.9173 121.694 90.6508C121.941 90.9712 122.187 91.2916 122.375 91.6482C122.748 92.3656 122.942 93.1789 122.725 93.976C122.316 95.4503 120.634 96.2809 119.183 96.2422L119.186 96.2381ZM144.176 37.3325C143.632 37.2455 143.057 37.0269 142.605 36.6795C142.189 36.3636 141.862 35.8834 141.76 35.3498C141.621 34.6277 141.834 33.8492 142.169 33.1366C142.543 32.349 143.121 31.6195 143.92 31.2823C144.553 31.0167 145.208 31.0601 145.848 31.3434C146.441 31.6051 146.955 32.1822 147.232 32.8331C147.56 33.6105 147.536 34.5301 147.291 35.3653C147.219 35.6205 147.344 35.806 147.517 35.9273C147.478 36.0129 147.489 36.1161 147.436 36.1987C147.109 36.7171 146.538 37.0722 145.988 37.2297C145.366 37.4102 144.814 37.4315 144.178 37.3285L144.176 37.3325ZM141.552 48.211C141.26 48.2961 141.013 48.5848 141.196 48.8846C139.617 51.4045 135.605 53.9438 133.257 51.0672C131.446 48.8507 131.535 45.0714 133.495 42.9763C134.56 41.8323 136.076 41.402 137.596 41.6375C139.089 41.8631 140.451 42.7841 140.683 44.3533C140.752 44.8138 141.282 44.8393 141.534 44.5802C142.157 45.6684 142.11 46.9738 141.555 48.207L141.552 48.211ZM142.508 48.9193C142.411 48.8256 142.336 48.7123 142.253 48.6047C142.888 47.1859 142.986 45.672 142.182 44.3825C142.348 44.2354 142.502 44.0814 142.681 43.9477C142.861 43.814 143.067 43.728 143.279 43.6884C143.721 43.6039 144.164 43.6974 144.558 43.8927C145.285 44.2587 145.893 45.0089 146.03 45.8C146.037 45.8528 146.044 45.9056 146.052 45.9583C146.054 45.9815 146.055 45.9983 146.058 46.0215C146.061 46.12 146.059 46.2162 146.051 46.3141C146.041 46.4161 146.031 46.5181 146.01 46.6194C146.006 46.6443 145.999 46.6669 145.995 46.6918C146 46.6837 146.009 46.6298 146 46.6837C145.986 46.7352 145.97 46.7907 145.954 46.8463C145.823 47.2885 145.69 47.5568 145.449 47.9087C145.343 48.0636 145.164 48.2894 145.077 48.3846C144.992 48.4758 144.784 48.6685 144.639 48.7791C144.56 48.8413 144.477 48.9012 144.389 48.9588C144.468 48.907 144.348 48.9836 144.324 48.9968C144.285 49.0175 144.244 49.0422 144.205 49.0629C144.121 49.106 144.029 49.1444 143.939 49.1788C143.909 49.1938 143.813 49.2194 143.898 49.1931C143.851 49.2091 143.802 49.2188 143.751 49.2325C143.66 49.25 143.572 49.2636 143.479 49.2747C143.382 49.2836 143.535 49.2802 143.441 49.2746C143.399 49.2721 143.355 49.2736 143.314 49.2711C143.257 49.2657 143.201 49.2602 143.147 49.2507C143.052 49.2387 143.205 49.273 143.114 49.2424C143.032 49.2166 142.95 49.1907 142.869 49.1544C142.848 49.1428 142.828 49.1311 142.81 49.1258C142.801 49.1211 142.81 49.1258 142.793 49.1164C142.753 49.0931 142.712 49.0697 142.677 49.0383C142.636 49.0149 142.6 48.9835 142.561 48.9497C142.54 48.938 142.453 48.8553 142.513 48.9112L142.508 48.9193ZM138.914 62.1888C138.834 62.1589 138.778 62.1911 138.708 62.1995C138.651 61.8695 138.623 61.5349 138.513 61.2018C138.478 61.095 138.392 61.0564 138.294 61.0484C137.815 59.9626 137.113 58.9639 136.166 58.2499C136.174 58.2169 136.213 58.1962 136.215 58.1649C136.199 57.7348 136.25 57.4134 136.405 57.0333C136.51 56.7863 136.767 56.4061 136.947 56.2243C137.489 55.6791 138.181 55.3019 138.93 55.0705C139.162 55.2372 139.529 55.2278 139.616 54.9002C139.999 54.8352 140.392 54.7981 140.776 54.8148C142.01 54.8741 143.19 55.5017 143.243 56.8864C143.253 57.1131 143.453 57.1481 143.603 57.0671C144.568 59.7018 141.727 63.2031 138.914 62.1888ZM131.274 68.1906C129.252 67.498 128.049 65.2928 127.995 63.2277C127.927 60.5987 130.173 58.4746 132.712 58.1873C135.102 57.9161 136.789 59.7965 137.559 61.8543C137.647 62.094 137.848 62.1395 138.038 62.109C138.302 64.0528 137.708 65.9974 136.103 67.2451C134.768 68.287 132.896 68.7442 131.266 68.186L131.274 68.1906ZM129.084 82.729C127.997 82.3122 126.889 81.5592 126.328 80.5125C125.39 78.746 126.087 76.5857 127.393 75.2028C128.575 73.9486 130.483 73.232 131.759 74.7507C132.144 75.205 132.855 74.6176 132.47 74.1633C132.355 74.0266 132.182 73.9806 132.051 73.8618C132.051 73.8618 132.055 73.8537 132.058 73.8497C133.542 74.3719 133.919 76.4837 133.892 77.9138C133.857 79.599 133.325 81.8006 131.721 82.682C130.89 83.1408 129.938 83.0608 129.077 82.7307L129.084 82.729ZM157.621 90.3678C157.621 90.3678 157.617 90.3383 157.62 90.3238C157.619 90.307 157.619 90.2965 157.618 90.2797C157.622 90.2172 157.624 90.1482 157.632 90.088C157.636 90.0631 157.641 90.0445 157.644 90.0196C157.678 89.9149 157.732 89.8114 157.759 89.7084C157.773 89.6841 157.79 89.6557 157.804 89.6315C157.832 89.5829 157.866 89.5431 157.898 89.4968C157.912 89.4726 157.934 89.453 157.952 89.431C157.989 89.4039 158.028 89.356 158.063 89.3226C158.152 89.2441 158.25 89.1767 158.348 89.1094C158.23 89.1923 158.378 89.0944 158.426 89.068C158.48 89.0398 158.528 89.0134 158.583 88.9916C158.695 88.9376 158.811 88.8964 158.926 88.8552C158.82 88.8802 159.023 88.8191 158.926 88.8552C158.956 88.8507 158.984 88.8398 159.009 88.8329C159.067 88.8175 159.122 88.8062 159.183 88.7931C159.304 88.771 159.429 88.7513 159.549 88.7397C159.565 88.7386 159.589 88.7358 159.605 88.7347C159.616 88.7353 159.629 88.7319 159.639 88.7325C159.698 88.7339 159.752 88.733 159.811 88.7344C159.928 88.7373 160.044 88.7505 160.158 88.7678C160.173 88.7708 160.187 88.7737 160.202 88.7767C160.21 88.7814 160.216 88.7797 160.224 88.7843C160.273 88.8019 160.327 88.8114 160.376 88.829C160.432 88.8449 160.483 88.8689 160.536 88.8888C160.548 88.8959 160.556 88.9005 160.568 88.9075C160.61 88.9373 160.661 88.9613 160.704 88.991C160.716 88.998 160.746 89.0207 160.772 89.0411C160.772 89.0411 160.823 89.0924 160.839 89.1121C160.872 89.1476 160.897 89.1889 160.924 89.2261C160.834 89.1202 160.905 89.1936 160.942 89.2691C160.955 89.2929 161.007 89.4467 160.979 89.355C160.953 89.2593 160.995 89.4397 160.999 89.4692C161.002 89.4924 161.003 89.5469 161.007 89.5765C161.003 89.6872 160.998 89.7978 160.981 89.9119C160.977 89.9473 160.971 89.9762 160.967 90.0115C160.948 90.1465 161.005 89.8987 160.963 90.0364C160.942 90.1105 160.923 90.1806 160.902 90.2547C160.773 90.6551 161.07 90.9074 161.388 90.9348C161.361 90.973 161.334 91.0111 161.3 91.0509C161.277 91.081 161.253 91.1046 161.23 91.1347C161.149 91.2282 161.297 91.0654 161.212 91.1566C161.107 91.2634 161 91.3637 160.882 91.4571C160.781 91.539 160.671 91.6161 160.562 91.6933C160.545 91.7048 160.527 91.7163 160.51 91.7279C160.499 91.7377 160.484 91.7451 160.475 91.7509C160.412 91.7848 160.353 91.8211 160.293 91.8509C160.179 91.909 160.056 91.9623 159.934 92.0053C159.913 92.0144 159.894 92.0196 159.872 92.0287C159.859 92.0322 159.853 92.0339 159.847 92.0356C159.783 92.0527 159.715 92.0675 159.653 92.0805C159.592 92.0936 159.522 92.102 159.457 92.1127C159.427 92.1172 159.4 92.1177 159.37 92.1222C159.247 92.1211 159.128 92.1118 159.001 92.098C158.987 92.095 158.954 92.0867 158.94 92.0838C158.931 92.0791 158.921 92.0785 158.907 92.0755C158.851 92.0596 158.791 92.0414 158.738 92.0215C158.714 92.0075 158.551 91.9349 158.618 91.9682C158.679 92.0032 158.513 91.9075 158.487 91.8871C158.428 91.848 158.375 91.8008 158.319 91.7577C158.257 91.7058 158.405 91.8508 158.319 91.7577C158.295 91.7333 158.271 91.7088 158.248 91.6844C158.199 91.6291 158.154 91.5762 158.111 91.5192C158.09 91.4907 158.064 91.4599 158.043 91.4314C158.039 91.429 158.016 91.3942 158.003 91.3703C157.917 91.2291 157.84 91.0822 157.776 90.9318C157.747 90.861 157.722 90.7925 157.699 90.72C157.67 90.6387 157.727 90.8389 157.695 90.7072C157.687 90.6648 157.677 90.6265 157.667 90.5883C157.652 90.5204 157.646 90.4468 157.634 90.3748L157.621 90.3678ZM150.867 96.2281C150.854 95.12 151.415 93.8307 152.475 93.3583C153.432 92.9342 154.608 93.2413 155.591 93.409C155.881 93.4578 156.039 93.2957 156.122 93.0955C157.346 93.6294 157.987 94.8086 158.062 96.1361C158.134 97.4027 157.812 98.7545 157.111 99.7633C156.449 100.714 155.46 101.222 154.355 100.875C152.502 100.291 150.89 98.2056 150.867 96.2281ZM150.014 99.3672C150.156 99.1789 150.271 98.9702 150.396 98.7725C150.819 99.5892 151.439 100.292 152.155 100.873C151.384 100.546 150.53 100.399 149.663 100.47C149.409 100.491 149.18 100.579 148.935 100.638C149.302 100.218 149.674 99.8073 150.01 99.3648L150.014 99.3672ZM149.182 109.068C149.432 107.253 148.954 104.997 147.136 104.352C147.017 103.96 146.814 103.649 146.549 103.398C147.449 102.24 148.777 101.426 150.283 101.481C151.778 101.535 153.085 102.392 153.861 103.655C154.549 104.78 154.709 105.989 154.303 107.244C153.95 108.34 153.247 109.381 152.263 110.01C151.81 110.299 151.285 110.481 150.741 110.507C150.103 110.538 149.592 110.302 149.015 110.077C148.976 110.06 148.973 110.112 148.934 110.106C149.028 109.756 149.137 109.408 149.183 109.057L149.182 109.068ZM142.595 112.797C141.728 112.458 140.99 111.849 140.432 111.078C140.691 110.834 140.483 110.363 140.112 110.521C139.943 110.224 139.764 109.937 139.645 109.62C138.882 107.55 139.207 104.857 141.519 104.001C142.381 103.684 143.348 103.552 144.266 103.624C144.55 103.647 144.843 103.708 145.127 103.797C145.195 104.127 145.56 104.327 145.856 104.196C146.017 104.348 146.146 104.525 146.214 104.764C146.333 105.173 146.776 105.229 147.034 105.043C148.524 105.909 148.555 108.145 148.142 109.702C147.936 110.479 147.611 111.285 147.05 111.873C146.356 112.599 145.277 113.039 144.285 113.093C143.84 113.116 143.429 113.025 143.028 112.917C142.972 112.761 142.843 112.648 142.67 112.743C142.64 112.757 142.622 112.779 142.595 112.797ZM130.606 123.453C131.789 121.881 132.968 120.306 134.165 118.747C135.72 116.726 137.534 113.435 139.688 111.722C140.242 112.463 140.931 113.055 141.731 113.463C141.064 114.103 140.521 114.885 139.895 115.559C138.756 116.784 137.556 117.975 136.324 119.109C134.552 120.74 132.578 122.093 130.602 123.451L130.606 123.453ZM173.647 122.836C173.625 122.856 173.601 122.88 173.576 122.903C169.064 126.767 164.095 130.076 158.415 131.906C153.529 133.483 148.422 134.144 143.451 135.374C138.135 136.686 133.01 138.733 127.762 140.301C123.583 141.551 119.966 143.536 116.322 145.905C111.576 148.987 106.982 152.291 102.227 155.351C99.5662 157.063 96.787 159.391 93.9003 161.383C93.8143 161.42 93.7324 161.459 93.6465 161.495C93.4836 161.525 93.3206 161.555 93.1576 161.585C93.6952 161.103 94.2294 160.607 94.7781 160.115C98.5166 156.732 102.416 153.416 106.453 150.394C107.781 149.402 109.13 148.384 110.489 147.366C112.372 146.263 114.272 145.186 116.119 144.061C119.106 142.241 122.468 141.183 125.704 139.895C132.533 137.185 139.443 134.468 146.828 133.849C147.009 133.835 146.954 133.566 146.782 133.574C139.365 134.013 132.379 136.837 125.544 139.538C122.089 140.905 118.565 142.048 115.403 144.031C114.776 144.425 114.123 144.781 113.478 145.159C120.171 140.304 127.323 135.812 135.362 134.238C143.292 132.687 151.198 132.223 158.997 129.879C164.369 128.265 169.209 125.945 173.651 122.839L173.647 122.836ZM180.191 120.426C173.681 126.422 165.08 131.341 157.132 135.223C149.483 138.959 141.274 141.228 133.175 143.744C119.808 147.902 107.353 154.302 95.0429 160.899C96.093 160.108 97.1327 159.316 98.1633 158.605C102.638 155.507 107.247 152.617 111.729 149.534C117.329 145.683 122.599 142.311 129.142 140.358C134.166 138.861 139.06 136.858 144.167 135.647C153.797 133.356 162.5 131.961 170.621 125.854C173.346 123.806 175.827 121.489 178.292 119.146C178.528 118.932 178.784 118.761 179.019 118.541C180.198 117.441 181.346 116.313 182.502 115.189C182.609 115.088 182.713 114.992 182.819 114.892C183.559 114.218 184.35 113.455 185.156 112.685C185.42 112.433 185.694 112.192 185.958 111.94C188.375 109.65 191.04 107.38 193.866 106.233C193.93 106.41 193.921 106.745 193.809 107.349C193.519 108.935 192.464 109.249 191.325 110.204C190.654 110.767 190.02 111.361 189.394 111.96C189.341 111.929 189.287 111.893 189.228 111.939C186.071 114.584 183.1 117.471 180.18 120.425L180.191 120.426ZM162.163 138.57C156.405 143.209 149.988 146.642 143.064 149.75C138.663 151.73 134.234 153.786 129.89 155.891C125.289 158.123 120.787 158.848 115.741 159.339C110.824 159.818 105.887 160.092 100.981 160.658C99.1828 160.866 97.3401 160.984 95.519 161.195C101.955 158.755 109.044 157.539 115.583 155.967C124.04 153.933 132.038 151.423 140.124 148.236C147.645 145.273 155.299 142.862 162.165 138.566L162.163 138.57ZM160.945 138.989C153.587 143.427 145.192 145.691 137.288 148.935C128.676 152.471 119.675 154.504 110.66 156.713C106.294 157.78 101.763 158.714 97.4193 160.118C110.351 153.341 123.4 147.1 137.517 142.83C145.097 140.538 152.708 138.101 159.7 134.315C165.946 130.934 172.526 127.142 178.082 122.537C174.535 126.214 171.08 129.992 167.57 133.642C166.305 134.956 164.955 136.098 163.613 137.254C162.742 137.857 161.859 138.443 160.947 138.995L160.945 138.989ZM86.0868 166.713C86.3943 166.367 86.6938 166.017 86.9932 165.666C87.3935 165.449 87.7977 165.235 88.198 165.018C88.5981 164.839 88.9924 164.651 89.3654 164.435C90.3961 163.967 91.3998 163.425 92.3635 162.783C92.9647 162.461 93.5677 162.146 94.1689 161.824C97.5691 161.213 101.198 161.075 104.428 160.787C109.441 160.336 114.473 160.02 119.47 159.409C128.533 158.297 136.224 153.16 144.496 149.633C151.802 146.519 158.475 142.445 164.353 137.206C171.217 132.353 176.842 126.03 182.417 119.802C182.543 119.658 182.3 119.491 182.176 119.63C177.468 124.843 172.697 130.116 167.226 134.538C167.422 134.338 167.641 134.174 167.833 133.972C174.072 127.473 180.153 120.604 186.859 114.548C182.484 119.387 179.019 124.95 175.078 130.196C169.608 137.484 162.716 144.236 154.337 148.052C150.258 149.911 145.889 151.014 141.788 152.828C137.467 154.736 133.31 157.003 128.925 158.777C120.621 162.135 111.956 162.624 103.131 163.119C97.2611 163.447 91.3471 164.198 86.074 166.716L86.0868 166.713ZM47.8868 127.253C50.6535 131.159 52.9019 135.225 54.6783 139.763C56.6356 144.772 58.4158 149.874 61.4318 154.367C61.4934 154.456 61.5672 154.412 61.6116 154.336C61.9031 157.148 62.4409 159.935 63.3348 162.787C63.3662 162.891 63.4064 162.99 63.4377 163.094C63.3489 163.005 63.2641 162.919 63.1776 162.826C62.2055 159.847 60.4454 157.094 58.8233 154.447C55.9231 149.697 54.4044 144.563 52.0768 139.551C49.4118 133.814 46.2874 128.304 42.0218 123.602C39.9547 121.324 37.6874 119.244 35.5959 116.989C34.2257 115.513 32.8491 114.076 31.1969 112.939C31.352 112.867 31.4706 112.773 31.6904 112.738C32.2674 112.645 34.1144 114.51 34.492 114.809C35.4274 115.543 36.3471 116.296 37.2534 117.062C39.9619 119.359 42.5399 121.808 45.0247 124.343C45.9695 125.304 46.9392 126.269 47.8851 127.246L47.8868 127.253ZM61.3399 151.125C61.3502 151.163 61.3972 151.147 61.4208 151.172C61.4621 152.156 61.493 153.139 61.5894 154.112C58.468 149.353 56.7345 143.928 54.6496 138.673C53.3462 135.39 51.7532 132.328 49.8814 129.413C50.1322 129.698 50.4051 129.964 50.6454 130.248C52.6922 132.655 53.446 135.226 54.7017 138.05C56.6967 142.536 59.8878 146.38 61.3422 151.121L61.3399 151.125ZM75.923 53.6716C75.3786 57.8192 75.9381 61.8488 75.7712 66.0526C75.5803 70.9708 73.9113 75.5806 72.4046 80.2086C71.2475 83.7543 69.6813 87.5602 69.3497 91.3019C69.0032 95.2563 69.9551 99.3722 70.9003 103.182C72.823 110.961 75.8605 118.407 78.0734 126.094C78.4394 127.665 78.8223 129.235 79.3311 130.764C79.3385 130.779 79.3396 130.796 79.3471 130.811C80.3594 135.28 80.9709 139.836 81.3518 144.399C81.6563 148.039 82.2939 152.092 81.6402 155.794C81.4934 155.067 81.346 154.35 81.1997 153.651C79.343 144.739 78.2433 135.628 75.9898 126.806C73.931 118.749 69.621 111.443 67.8354 103.333C65.9169 94.6129 67.2063 85.6619 70.2971 77.384C71.6745 73.6903 73.7557 70.1602 74.6633 66.3085C75.5124 62.6983 74.0428 56.9563 75.8688 53.7374C75.8875 53.705 75.9026 53.6976 75.919 53.6693L75.923 53.6716ZM72.3335 119.106C72.8758 120.53 73.2656 121.985 73.6977 123.433C73.8545 132.037 71.1711 140.674 68.6127 148.731C67.0878 153.521 66.3748 158.699 66.2905 163.862C66.0311 162.536 65.7972 161.203 65.6098 159.865C64.8259 154.206 65.3788 148.455 66.2793 142.841C67.1768 137.24 68.4 131.758 68.9263 126.1C69.1597 123.575 69.3995 121.048 69.8987 118.558C70.1887 117.112 70.4842 115.713 70.4779 114.285C71.0959 115.877 71.7197 117.478 72.3399 119.104L72.3335 119.106ZM77.0463 52.4641C77.9729 57.6984 78.4854 62.9958 77.4909 68.2594C76.5885 73.0366 75.4197 77.7518 74.5977 82.5484C73.2739 90.2603 71.1425 98.4554 72.1389 106.325C70.8083 101.753 69.4485 96.7273 69.729 91.9903C69.9978 87.4138 72.0307 82.6688 73.4544 78.3436C74.7699 74.3552 76.0549 70.3169 76.1837 66.0857C76.3207 61.6813 75.7029 57.3698 76.4175 53.0021C76.6383 52.7411 76.8477 52.5653 77.044 52.4682L77.0463 52.4641ZM78.4162 52.9691C78.094 55.648 78.5421 58.4317 78.4372 61.1174C78.4113 61.7229 78.3772 62.3237 78.3473 62.9268C78.3999 59.3693 77.9512 55.8299 77.2741 52.3312C77.7108 52.2381 78.0886 52.4994 78.4145 52.9627L78.4162 52.9691ZM85.2173 138.937C85.2939 138.151 85.3994 137.37 85.4552 136.582C85.907 133.174 86.2441 129.759 86.3491 126.41C86.4652 122.668 85.9815 119.189 85.2403 115.745C84.9003 110.083 84.4717 104.435 84.2578 98.8354C83.9295 90.3317 81.6646 82.118 80.9851 73.6434C80.6729 69.7836 80.5658 65.9234 80.4634 62.0552C80.4834 62.2448 80.5219 62.4397 80.5419 62.6293C80.9183 66.3967 81.0825 70.1765 81.4844 73.9371C83.2582 90.5322 87.394 106.97 86.7198 123.759C86.519 128.806 85.9293 133.883 85.2173 138.937ZM85.955 126.943C85.9062 128.102 85.792 129.272 85.7009 130.438C85.7538 126.077 85.5835 121.7 85.334 117.321C85.8503 120.5 86.0918 123.726 85.955 126.943ZM83.6655 145.185C83.4164 138.291 83.2995 131.215 82.0352 124.426C80.7681 117.614 78.7648 111.003 77.9785 104.096C77.2216 97.4654 77.8017 91.0885 78.0884 84.4721C78.3597 78.1813 78.2046 71.8817 78.5513 65.5913C78.7004 62.8664 78.977 60.145 78.8376 57.4153C78.8202 57.0438 78.6175 54.7039 78.7203 53.5169C79.2136 54.5031 79.5534 55.8485 79.721 56.7168C79.8111 57.1681 79.8373 57.6364 79.9106 58.0888C80.3154 63.5074 80.1887 68.9591 80.6561 74.3815C81.1827 80.5233 82.6589 86.4688 83.4164 92.5659C84.1857 98.7453 84.0046 105.067 84.4157 111.287C84.4494 111.771 84.4791 112.252 84.5105 112.739C84.0054 110.765 83.4587 108.787 82.8821 106.749C78.849 92.5726 80.0247 77.6427 79.9847 63.0899C79.9826 62.916 79.7121 62.8893 79.7119 63.0673C79.7087 76.9099 78.6406 90.9901 81.9474 104.575C82.6881 107.608 83.759 110.547 84.5618 113.557C85.0998 121.809 85.5201 130.07 84.8286 138.265C84.4901 140.589 84.0856 142.897 83.6528 145.188L83.6655 145.185ZM83.3674 146.664C83.1532 142.774 82.3984 138.896 81.3814 135.584C79.9389 130.888 78.4634 126.324 77.3558 121.525C76.3579 117.199 74.0596 113.407 73.0064 109.13C70.739 99.9111 73.7229 89.408 75.3572 80.2893C76.24 75.3874 77.7601 70.5028 78.2138 65.5313C78.0665 68.3651 77.9192 71.1989 77.8842 74.0437C77.7911 81.7916 76.9073 89.601 77.1208 97.3317C77.3232 104.829 78.837 112.064 80.5668 119.327C82.5974 127.853 83.0361 136.54 83.4131 145.276C83.4194 145.415 83.5822 145.423 83.6295 145.331C83.5441 145.778 83.4528 146.217 83.3633 146.661L83.3674 146.664ZM82.9895 149.99C82.9238 152.337 82.564 154.633 81.8533 156.845C81.8358 156.754 81.8183 156.662 81.803 156.567C82.3581 154.158 82.1991 151.649 82.0448 149.132C81.7478 144.358 81.3539 139.593 80.5385 134.876C80.4657 134.451 80.3355 134.042 80.2563 133.618C81.6874 138.259 82.9264 143.345 83.0457 148.323C82.9444 148.826 82.8528 149.339 82.7433 149.837C82.7078 150.011 82.8589 150.039 82.9942 149.982L82.9895 149.99ZM82.2797 159.292C82.1947 158.757 82.1073 158.227 82.0094 157.695C82.3921 156.622 82.6939 155.501 82.9165 154.34C82.6987 155.978 82.4924 157.634 82.2838 159.294L82.2797 159.292ZM70.1051 162.59C70.6929 156.919 73.0869 151.913 74.6615 146.504C75.7411 142.784 76.1729 138.944 76.4836 135.098C77.2742 139.391 77.9546 143.706 78.7846 148.005C79.3841 151.124 80.3388 154.638 80.996 158.189C80.9162 158.402 80.8613 158.619 80.7671 158.829C80.7085 158.968 80.9237 159.043 80.9904 158.909C81.0267 158.828 81.0381 158.742 81.0744 158.661C81.3795 160.375 81.6134 162.091 81.681 163.786C81.5332 164.818 81.3669 165.844 81.1965 166.868C81.1816 166.697 80.9216 166.671 80.915 166.851C80.832 170.321 79.1211 173.957 77.6422 177.041C75.8381 180.802 73.1917 183.984 71.0628 187.54C70.9319 187.767 71.2588 188.004 71.4001 187.778C73.6037 184.233 76.2013 180.957 78.005 177.17C78.7141 175.68 79.4596 174.071 80.0553 172.413C80.05 172.432 80.0447 172.45 80.0394 172.469C80.0184 172.505 80.0159 172.547 79.9948 172.584C79.9715 172.624 79.9945 172.659 79.9816 172.7C79.6026 174.235 79.1872 175.748 78.6775 177.229C78.6652 177.26 78.6848 177.282 78.6829 177.313C76.0074 182.059 72.8309 186.608 69.636 191.011C69.7825 188.609 69.8618 186.21 69.8495 183.802C69.9285 184.263 69.9508 184.729 70.0385 185.185C70.1354 185.662 70.1802 186.135 70.2203 186.617C70.2583 187.065 70.299 187.536 70.5459 187.922C70.5747 187.965 70.6349 187.973 70.6789 187.972C70.9311 187.955 70.9705 187.822 71.0399 187.608C71.0833 187.477 70.9045 187.422 70.8472 187.54C70.8215 187.585 70.7815 187.588 70.7588 187.618C70.6504 187.227 70.5908 186.826 70.5649 186.422C70.5322 185.955 70.4798 185.504 70.3944 185.045C70.1912 183.967 69.9904 182.886 69.9288 181.787C69.9238 181.73 69.8653 181.729 69.8248 181.706C69.8218 181.477 69.8205 181.255 69.8175 181.027C70.0084 181.089 70.2719 180.885 70.189 180.626C70.0679 180.238 69.9213 179.857 69.7979 179.472C69.6803 173.837 69.5187 168.202 70.1011 162.587L70.1051 162.59ZM67.5288 170.247C67.4516 168.746 67.3668 167.267 67.6664 165.73C68.0396 163.804 68.3149 161.869 68.6303 159.931C69.3508 155.534 71.5231 151.987 73.2497 147.95C73.3663 147.682 73.4521 147.403 73.5606 147.131C73.4217 147.596 73.3182 148.065 73.1584 148.528C71.5619 153.153 69.7725 157.607 69.2432 162.513C68.7373 167.239 68.783 171.981 68.8704 176.725C68.6194 175.992 68.373 175.251 68.1196 174.522C67.9818 173.088 67.7849 171.663 67.5329 170.25L67.5288 170.247ZM66.694 165.854C66.6058 158.999 67.7906 152.135 70.0561 145.679C71.5461 141.436 72.3052 137.336 73.0502 132.916C73.5231 130.098 73.9665 127.284 74.0239 124.447C74.6913 126.785 75.274 129.139 75.7633 131.515C75.7593 134.054 74.9886 136.604 74.8444 139.142C74.6165 143.144 73.6021 146.545 71.8594 150.152C70.1841 153.614 68.7265 156.728 68.136 160.563C67.8369 162.51 67.4636 164.437 67.1291 166.38C67.0488 166.846 67.0885 167.301 67.0777 167.759C66.9525 167.125 66.8233 166.49 66.6957 165.86L66.694 165.854ZM64.6716 143.018C66.0288 132.661 68.8528 122.518 69.6349 112.082C69.7918 112.502 69.9423 112.923 70.1032 113.345C70.298 115.745 69.5626 118.056 69.192 120.427C68.7772 123.079 68.6034 125.763 68.3299 128.432C67.7668 133.902 66.3848 139.238 65.608 144.676C64.8641 149.879 64.5197 155.157 65.2882 160.375C65.5586 162.215 65.92 164.037 66.2878 165.857C66.3013 166.469 66.2521 167.077 66.2847 167.684C64.6157 159.55 63.5682 151.451 64.6716 143.018ZM63.7607 161.274C62.0745 155.374 62.0674 149.538 62.4392 143.456C62.8204 137.218 63.7462 131.008 65.6166 125.031C67.1467 120.12 68.8346 115.543 69.0305 110.438C69.1615 110.8 69.299 111.16 69.43 111.522C68.3815 122.419 65.4912 133.003 64.1984 143.857C63.2581 151.736 64.2005 159.353 65.7311 166.97C65.6714 166.85 65.571 166.743 65.4985 166.626C65.3534 166.186 65.2105 165.742 65.0677 165.298C65.0815 165.311 65.0913 165.322 65.1028 165.34C65.2683 165.511 65.5545 165.277 65.3913 165.102C65.2004 164.9 65.0008 164.704 64.8076 164.506C64.4642 163.428 64.0698 162.364 63.7583 161.278L63.7607 161.274ZM33.4989 120.537C33.5098 120.565 33.5247 120.595 33.5356 120.623C34.539 122.837 35.7755 124.9 36.9347 127.032C39.4011 131.579 41.8997 136.081 44.5654 140.518C47.0085 144.583 49.4996 148.686 52.4356 152.421C55.0352 155.729 58.1386 158.594 60.5185 162.04C57.6206 159.725 54.9593 157.271 52.6388 154.264C49.3517 149.998 46.5368 145.222 43.5957 140.702C40.4761 135.912 37.5704 130.976 35.4627 125.648C34.7924 123.95 34.1715 122.231 33.4948 120.535L33.4989 120.537ZM30.5905 114.531C34.3512 117.501 37.6246 121.716 40.238 125.561C43.1973 129.919 45.3114 134.722 48.1348 139.147C51.1285 143.837 53.4236 148.729 56.06 153.618C57.977 157.174 60.3025 160.097 62.919 162.984C63.0465 163.37 63.1165 163.772 63.2161 164.17C62.8385 163.871 62.4586 163.576 62.1185 163.315C61.8043 163.074 61.5053 162.826 61.1935 162.581C58.9896 159.026 55.953 156.129 53.2929 152.889C49.6871 148.492 46.7777 143.478 43.881 138.601C40.9671 133.698 38.3464 128.651 35.5342 123.693C33.886 120.782 32.946 117.235 30.6638 114.741C30.645 114.671 30.6076 114.595 30.5905 114.531ZM30.8053 113.188C32.974 114.645 34.6662 116.647 36.4639 118.532C38.3112 120.462 40.2877 122.261 42.0663 124.254C46.2468 128.944 49.3594 134.512 51.951 140.217C54.1042 144.962 55.5368 149.787 58.284 154.26C59.8434 156.8 61.5311 159.436 62.6152 162.258C61.5909 161.192 60.5934 160.098 59.7151 158.9C57.8209 156.323 56.3343 153.441 54.9027 150.586C52.5693 145.948 49.9551 141.665 47.3527 137.185C44.8717 132.914 42.7458 128.514 39.8912 124.471C37.3376 120.849 34.1703 116.889 30.5496 114.098C30.5252 113.738 30.5944 113.422 30.8035 113.181L30.8053 113.188Z" fill="white"/>
<path d="M89.2269 163.217C89.1904 163.234 89.1784 163.189 89.1471 163.187C88.7644 163.635 88.3718 164.072 87.9891 164.52C88.2026 164.449 88.4089 164.325 88.6167 164.246C88.5968 164.159 88.5927 164.054 88.6886 163.991C89.4603 163.513 90.2544 163.082 91.0617 162.674C91.1076 162.641 91.1535 162.608 91.1995 162.575C90.5362 162.78 89.8442 162.942 89.2269 163.217Z" fill="white"/>
<path d="M130.377 166.201C130.412 166.168 130.451 166.137 130.486 166.104C130.425 166.127 130.368 166.17 130.311 166.195C130.333 166.203 130.359 166.186 130.377 166.201Z" fill="white"/>
<path d="M75.031 140.772C75.4678 138.1 75.7495 135.397 76.018 132.671C76.0073 132.606 75.9862 132.54 75.9731 132.478C75.8596 134.123 75.5178 135.771 75.3022 137.443C75.1604 138.548 75.1038 139.665 75.031 140.772Z" fill="white"/>
<path d="M76.93 121.188C76.6198 119.94 76.2777 118.702 75.8504 117.489C75.5231 116.561 75.1587 115.66 74.7896 114.767C75.5065 116.908 76.2298 119.046 76.9259 121.185L76.93 121.188Z" fill="white"/>
<path d="M83.5165 150.133C83.6454 149.312 83.7726 148.484 83.9038 147.659C83.7895 148.202 83.721 148.751 83.5922 149.292C83.5674 149.391 83.4863 149.382 83.4086 149.385C83.3944 150.213 83.3392 151.029 83.263 151.842C83.3456 151.27 83.4241 150.694 83.5125 150.13L83.5165 150.133Z" fill="white"/>
<path d="M114.533 115.873C115.65 114.133 116.189 112.135 116.907 110.219C117.603 108.36 118.316 106.554 118.553 104.565C118.571 104.413 118.795 104.435 118.784 104.585C118.604 106.607 117.93 108.446 117.255 110.344C116.556 112.303 116 114.34 114.862 116.106C114.841 116.142 114.801 116.108 114.771 116.123C113.636 118.883 111.931 121.314 110.305 123.812C108.423 126.707 107.041 130.026 104.767 132.647C104.605 132.834 104.292 132.62 104.448 132.424C106.562 129.782 107.918 126.675 109.833 123.901C111.564 121.399 113.339 118.847 114.566 116.048C114.54 115.99 114.487 115.943 114.531 115.877L114.533 115.873Z" fill="white"/>
<path d="M102.091 136.011C102.513 135.43 103.019 134.918 103.446 134.338C103.528 134.224 103.704 134.348 103.626 134.464C103.237 135.065 102.758 135.603 102.348 136.192C102.232 136.357 101.975 136.176 102.091 136.011Z" fill="white"/>
<path d="M87.0659 157.626C87.664 156.067 88.631 154.71 89.4563 153.271C90.3634 151.69 91.3484 150.171 92.3179 148.632C94.4402 145.255 96.9818 142.18 99.3328 138.967C99.4308 138.835 99.6376 138.981 99.5436 139.116C97.3575 142.267 94.92 145.246 92.8685 148.491C91.9247 149.986 90.9294 151.467 90.0763 153.019C89.2005 154.601 88.1622 156.101 87.4691 157.778C87.366 158.031 86.9726 157.89 87.0676 157.632L87.0659 157.626Z" fill="white"/>
<path d="M123.514 98.6452C122.67 100.592 122.219 102.71 121.186 104.574C121.092 104.736 120.804 104.591 120.887 104.418C121.859 102.454 122.437 100.333 123.317 98.332C124.189 96.3538 124.988 94.344 126.017 92.4401C126.083 92.3268 126.282 92.4308 126.22 92.5464C125.217 94.5356 124.396 96.6027 123.51 98.6429L123.514 98.6452Z" fill="white"/>
</svg>
