<svg width="680" height="84" viewBox="0 0 680 84" fill="none" xmlns="http://www.w3.org/2000/svg">
<g clip-path="url(#clip0_82_44)">
<path d="M398.331 72.5918C395.383 76.1632 391.185 78.9397 385.761 80.9325C380.337 82.9253 374.317 83.9441 367.688 83.9889C360.745 84.0336 354.635 82.567 349.379 79.589C344.124 76.611 340.05 72.256 337.158 66.535C334.266 60.8141 332.758 54.0744 332.635 46.3159L332.601 40.8861C332.545 32.9149 333.85 25.9961 336.517 20.152C339.184 14.2967 343.044 9.80733 348.119 6.68378C353.194 3.56023 359.147 1.97047 365.978 1.92568C375.498 1.85851 382.959 4.06403 388.361 8.55343C393.762 13.0316 396.981 19.5922 398.038 28.2128L381.935 28.3247C381.17 23.757 379.516 20.4207 376.984 18.3159C374.452 16.2112 370.974 15.17 366.563 15.2036C360.937 15.2372 356.672 17.3755 353.757 21.5962C350.842 25.8281 349.402 32.0864 349.424 40.3935L349.458 45.4987C349.515 53.8729 351.157 60.1872 354.387 64.4527C357.617 68.707 362.321 70.8229 368.487 70.7782C374.699 70.7334 379.122 69.3899 381.755 66.7366L381.665 52.9661L366.608 53.0668L366.529 40.9421L398.129 40.7294L398.342 72.603L398.331 72.5918Z" fill="#0099D9"/>
<path d="M534.957 65.3035L505.946 65.5051L500.544 81.9961L482.956 82.1192L512.293 2.03765L527.62 1.93689L558.217 81.6154L540.628 81.7386L534.946 65.3147L534.957 65.3035ZM510.323 52.1376L530.399 52.0033L520.103 22.1672L510.323 52.1376Z" fill="#0099D9"/>
<path d="M579.688 68.2367L614.821 68.0016L614.911 81.2235L563.236 81.5706L562.685 1.69057L579.227 1.57861L579.688 68.2367Z" fill="#0099D9"/>
<path d="M663.401 59.9297C663.379 56.8173 662.265 54.4439 660.048 52.7869C657.831 51.1412 653.847 49.4059 648.097 47.6034C642.346 45.8009 637.8 44.0096 634.435 42.2408C625.286 37.4043 620.684 30.8325 620.628 22.5254C620.594 18.2152 621.798 14.3527 624.217 10.9493C626.637 7.54583 630.137 4.8813 634.694 2.94448C639.263 1.00765 644.394 0.022445 650.089 -0.0111415C655.828 -0.0447281 660.937 0.951673 665.438 2.98926C669.939 5.02684 673.439 7.91529 675.949 11.6658C678.458 15.4163 679.73 19.6818 679.763 24.4735L663.221 24.5854C663.199 20.9245 662.017 18.092 659.688 16.0768C657.358 14.0616 654.095 13.0652 649.909 13.0988C645.869 13.1212 642.729 13.9945 640.501 15.7186C638.273 17.4315 637.159 19.6818 637.181 22.4583C637.204 25.0556 638.532 27.2276 641.165 28.9629C643.809 30.6982 647.68 32.3215 652.812 33.8217C662.242 36.5758 669.118 40.024 673.45 44.1664C677.783 48.3087 679.966 53.4811 680.011 59.7058C680.056 66.6134 677.468 72.0544 672.235 76.0288C667.002 79.9921 659.946 82.0072 651.045 82.0744C644.867 82.1192 639.24 81.0332 634.143 78.8165C629.056 76.5998 625.163 73.5434 622.473 69.6474C619.784 65.7513 618.422 61.2284 618.377 56.0672L634.975 55.9553C635.032 64.7661 640.355 69.1436 650.944 69.0652C654.882 69.0428 657.943 68.2256 660.138 66.6134C662.332 65.0124 663.424 62.7733 663.401 59.9297Z" fill="#0099D9"/>
<path d="M425.159 31.2467C426.171 29.5338 427.398 27.9664 428.816 26.567L416.843 13.5018C413.827 16.3679 411.261 19.693 409.235 23.3539L425.17 31.2467H425.159Z" fill="#28A838"/>
<path d="M454.53 22.0103C456.342 22.8388 458.03 23.8912 459.549 25.1451L471.556 12.1023C468.394 9.39299 464.804 7.14269 460.91 5.49695L454.519 22.0215L454.53 22.0103Z" fill="#D7A600"/>
<path d="M482.033 25.94L466.109 33.8329C466.875 35.6018 467.415 37.4714 467.707 39.4306L485.42 37.7625C484.902 33.5866 483.732 29.6122 482.033 25.9288" fill="#C60F28"/>
<path d="M464.973 31.5489L480.896 23.6561C478.927 20.0063 476.406 16.7037 473.458 13.8264L461.451 26.8692C462.824 28.2686 464.005 29.836 464.984 31.5489" fill="#00973B"/>
<path d="M421.997 42.8005C421.997 42.4422 422.008 42.084 422.019 41.7369L404.307 40.1583C404.251 41.0316 404.217 41.916 404.217 42.8005C404.217 46.1815 404.633 49.4618 405.421 52.6078L422.526 47.7265C422.177 46.1367 421.986 44.491 421.986 42.8117" fill="#427935"/>
<path d="M462.745 57.2875C461.484 58.8101 460.033 60.1759 458.423 61.3291L467.775 76.3982C471.241 74.0584 474.335 71.2035 476.935 67.9344L462.745 57.2875Z" fill="#FABD00"/>
<path d="M467.955 42.8005C467.955 44.4686 467.775 46.092 467.426 47.6593L484.531 52.5518C485.307 49.4282 485.724 46.1591 485.724 42.8005C485.724 41.9608 485.701 41.1323 485.645 40.3151L467.932 41.9832C467.932 42.2631 467.943 42.5318 467.943 42.8117" fill="#E83819"/>
<path d="M427.5 57.6234L413.343 68.3263C415.977 71.5506 419.094 74.3607 422.593 76.6558L431.945 61.609C430.302 60.4783 428.805 59.1348 427.511 57.6234" fill="#F5A200"/>
<path d="M422.289 39.1956C422.604 37.2028 423.19 35.2995 423.989 33.5194L408.076 25.6266C406.321 29.3547 405.117 33.3851 404.565 37.6058L422.301 39.1844L422.289 39.1956Z" fill="#0075BA"/>
<path d="M465.603 77.7641L456.263 62.7173C454.564 63.6689 452.741 64.419 450.816 64.9228L454.114 82.3318C458.21 81.3914 462.081 79.8352 465.603 77.7641Z" fill="#970B31"/>
<path d="M466.751 50.1335C466.132 51.9472 465.299 53.6489 464.264 55.2275L478.466 65.8856C480.773 62.5829 482.596 58.9332 483.845 55.0148L466.751 50.1223V50.1335Z" fill="#00A6D9"/>
<path d="M448.296 65.4266C447.215 65.5834 446.113 65.6617 444.976 65.6617C444.076 65.6617 443.175 65.6058 442.298 65.505L439 82.914C440.947 83.1939 442.939 83.3507 444.965 83.3507C447.215 83.3507 449.421 83.1715 451.57 82.8133L448.273 65.4266H448.296Z" fill="#ED6A02"/>
<path d="M446.45 19.9841C448.42 20.1072 450.333 20.4879 452.133 21.0812L458.525 4.55663C454.721 3.22436 450.67 2.42948 446.45 2.28394V19.9841Z" fill="#E5001E"/>
<path d="M439.766 65.0795C437.774 64.6205 435.883 63.8928 434.128 62.9524L424.765 78.0104C428.366 80.0592 432.305 81.5817 436.469 82.4662L439.754 65.0795H439.766Z" fill="#DC007A"/>
<path d="M438.077 21.0028C439.923 20.4206 441.87 20.0736 443.884 19.9728V2.27271C439.608 2.38466 435.5 3.15715 431.641 4.48942L438.077 21.0028Z" fill="#003067"/>
<path d="M425.936 55.597C424.81 53.9401 423.888 52.1264 423.224 50.1896L406.13 55.0708C407.424 59.1236 409.348 62.9077 411.779 66.2999L425.936 55.597Z" fill="#D39200"/>
<path d="M430.741 24.8765C432.248 23.6898 433.891 22.6934 435.669 21.9097L429.244 5.40747C425.418 7.00843 421.884 9.16917 418.756 11.8001L430.741 24.8765Z" fill="#004C88"/>
<path d="M18.7367 28.2352C18.7367 27.0372 18.3091 26.0968 17.4538 25.4251C16.5986 24.7533 15.1019 24.0592 12.9525 23.3427C10.8031 22.6262 9.04764 21.9321 7.68599 21.2603C3.25221 19.0884 1.03532 16.1104 1.03532 12.3263C1.03532 10.4455 1.58673 8.77734 2.68955 7.33312C3.79237 5.8889 5.35657 4.76934 7.38216 3.96327C9.40774 3.15719 11.6809 2.75415 14.2016 2.75415C16.7224 2.75415 18.8717 3.19078 20.8185 4.06403C22.7654 4.93728 24.2845 6.17998 25.3649 7.79214C26.4452 9.40429 26.9853 11.2516 26.9853 13.3227H18.7592C18.7592 11.9345 18.3316 10.8597 17.4763 10.0984C16.6211 9.33712 15.462 8.95647 14.0103 8.95647C12.5587 8.95647 11.3771 9.28114 10.5218 9.93048C9.66657 10.5798 9.23894 11.3971 9.23894 12.3935C9.23894 13.2667 9.71158 14.0616 10.6456 14.7669C11.5909 15.4723 13.2338 16.2112 15.6083 16.9613C17.9715 17.7226 19.9183 18.5286 21.4375 19.4019C25.1398 21.5178 26.9853 24.4511 26.9853 28.1792C26.9853 31.1572 25.86 33.4971 23.5981 35.1988C21.3362 36.9005 18.2415 37.7514 14.3142 37.7514C11.5346 37.7514 9.02513 37.2587 6.77448 36.2623C4.52383 35.2771 2.83584 33.9113 1.69926 32.1872C0.562685 30.4631 -0.0112305 28.4815 -0.0112305 26.2312H8.25991C8.25991 28.056 8.73255 29.3995 9.67782 30.2615C10.6231 31.1236 12.1648 31.5602 14.3029 31.5602C15.6645 31.5602 16.7449 31.2691 17.5326 30.687C18.3203 30.1048 18.7142 29.2763 18.7142 28.224L18.7367 28.2352Z" fill="#0099D9"/>
<path d="M58.5507 3.23547V25.5258C58.5507 28.056 58.0105 30.2391 56.9302 32.0863C55.8499 33.9336 54.2969 35.3442 52.2714 36.3071C50.2458 37.2699 47.8601 37.7625 45.103 37.7625C40.9281 37.7625 37.6534 36.6877 35.2564 34.5382C32.8595 32.3886 31.6329 29.4442 31.5879 25.6937V3.23547H39.8928V25.8504C39.9828 29.5785 41.7271 31.437 45.1143 31.437C46.8248 31.437 48.1189 30.9668 48.9967 30.0376C49.8744 29.0971 50.3133 27.5857 50.3133 25.481V3.23547H58.5619H58.5507Z" fill="#0099D9"/>
<path d="M81.8451 28.2352C81.8451 27.0372 81.4175 26.0968 80.5622 25.4251C79.707 24.7533 78.2103 24.0592 76.0609 23.3427C73.9115 22.6262 72.156 21.9321 70.7944 21.2603C66.3606 19.0884 64.1437 16.1104 64.1437 12.3263C64.1437 10.4455 64.6951 8.77734 65.7979 7.33312C66.9008 5.8889 68.465 4.76934 70.4906 3.96327C72.5161 3.15719 74.7893 2.75415 77.31 2.75415C79.8307 2.75415 81.9801 3.19078 83.9269 4.06403C85.8738 4.93728 87.3929 6.17998 88.4733 7.79214C89.5536 9.40429 90.0937 11.2516 90.0937 13.3227H81.8676C81.8676 11.9345 81.44 10.8597 80.5847 10.0984C79.7295 9.33712 78.5704 8.95647 77.1187 8.95647C75.667 8.95647 74.4855 9.28114 73.6302 9.93048C72.775 10.5798 72.3473 11.3971 72.3473 12.3935C72.3473 13.2667 72.82 14.0616 73.754 14.7669C74.6993 15.4723 76.3535 16.2112 78.7167 16.9613C81.0799 17.7226 83.0267 18.5286 84.5459 19.4019C88.2482 21.5178 90.0937 24.4511 90.0937 28.1792C90.0937 31.1572 88.9684 33.4971 86.7065 35.1988C84.4446 36.9005 81.3499 37.7514 77.4226 37.7514C74.643 37.7514 72.1335 37.2587 69.8829 36.2623C67.6322 35.2771 65.9442 33.9113 64.8077 32.1872C63.6711 30.4631 63.0972 28.4815 63.0972 26.2312H71.3683C71.3683 28.056 71.8409 29.3995 72.7862 30.2615C73.7315 31.1236 75.2732 31.5602 77.4113 31.5602C78.7729 31.5602 79.8533 31.2691 80.641 30.687C81.4287 30.1048 81.8226 29.2763 81.8226 28.224L81.8451 28.2352Z" fill="#0099D9"/>
<path d="M121.681 9.57214H111.407V37.2923H103.159V9.57214H93.0757V3.23547H121.693V9.57214H121.681Z" fill="#0099D9"/>
<path d="M142.264 30.9332H130.954L128.973 37.2923H120.151L132.71 3.23547H140.463L153.112 37.2923H144.244L142.241 30.9332H142.264ZM132.935 24.5853H140.294L136.603 12.7741L132.935 24.5853Z" fill="#0099D9"/>
<path d="M164.894 37.2923H156.668V3.23547H164.894V37.2923Z" fill="#0099D9"/>
<path d="M199.711 37.2923H191.508L179.377 16.0991V37.2923H171.128V3.23547H179.377L191.485 24.4286V3.23547H199.711V37.2923Z" fill="#0099D9"/>
<path d="M225.279 30.9332H213.969L211.989 37.2923H203.166L215.725 3.23547H223.478L236.127 37.2923H227.259L225.256 30.9332H225.279ZM215.938 24.5853H223.298L219.607 12.7741L215.938 24.5853Z" fill="#0099D9"/>
<path d="M239.109 37.2923V3.23547H251.409C255.809 3.23547 259.162 4.04155 261.458 5.64251C263.754 7.24347 264.901 9.58333 264.901 12.6397C264.901 14.3974 264.496 15.9088 263.675 17.1515C262.865 18.3942 261.66 19.3234 260.074 19.9168C261.863 20.387 263.236 21.2603 264.192 22.5366C265.149 23.8128 265.622 25.3802 265.622 27.2163C265.622 30.5525 264.564 33.0603 262.437 34.7397C260.31 36.419 257.17 37.2699 252.995 37.3034H239.098L239.109 37.2923ZM247.369 17.4314H251.668C253.468 17.4202 254.751 17.0843 255.527 16.4462C256.293 15.808 256.675 14.8564 256.675 13.6025C256.675 12.1583 256.259 11.1283 255.426 10.4902C254.593 9.85203 253.254 9.53855 251.409 9.53855H247.369V17.4202V17.4314ZM247.369 22.8164V30.978H252.782C254.267 30.978 255.415 30.6421 256.214 29.9592C257.013 29.2763 257.418 28.3246 257.418 27.0931C257.418 24.2607 256 22.8276 253.164 22.8164H247.38H247.369Z" fill="#0099D9"/>
<path d="M278.9 30.978H293.271V37.2923H270.652V3.23547H278.9V30.978Z" fill="#0099D9"/>
<path d="M318.467 22.8388H305.492V30.978H320.819V37.2923H297.232V3.23547H320.864V9.57214H305.492V16.7485H318.467V22.8276V22.8388Z" fill="#0099D9"/>
<path d="M1.04639 83.3507V49.9768H11.8495C14.8091 49.9768 17.4761 50.6485 19.8393 51.9808C22.2025 53.3131 24.048 55.2051 25.3759 57.6457C26.7038 60.0864 27.379 62.8181 27.3902 65.8409V67.3747C27.3902 70.431 26.7375 73.1739 25.4434 75.5922C24.1493 78.0104 22.315 79.9136 19.9631 81.2795C17.5999 82.6453 14.9779 83.3395 12.0746 83.3507H1.04639ZM9.13747 56.1903V77.1595H11.9508C14.2689 77.1595 16.047 76.3423 17.2961 74.6965C18.5452 73.0508 19.1641 70.6102 19.1641 67.3747V65.9304C19.1641 62.7061 18.5452 60.2767 17.2961 58.6421C16.047 57.0076 14.2352 56.1903 11.8608 56.1903H9.13747Z" fill="#0099D9"/>
<path d="M50.5834 69.1883H38.7112V77.1595H52.8903V83.3507H30.6313V49.9768H52.9353V56.1903H38.7112V63.2323H50.5834V69.1883Z" fill="#0099D9"/>
<path d="M70.6141 74.2823L77.2986 49.988H86.3237L75.0367 83.3619H66.1916L54.9946 49.988H63.9522L70.6141 74.2823Z" fill="#0099D9"/>
<path d="M108.605 69.1883H96.8455V77.1595H110.912V83.3507H88.7656V49.9768H110.957V56.1903H96.8455V63.2323H108.605V69.1883Z" fill="#0099D9"/>
<path d="M121.782 77.1708H134.577V83.3619H113.691V49.988H121.782V77.1708Z" fill="#0099D9"/>
<path d="M164.658 67.3523C164.658 70.6102 164.05 73.4874 162.835 75.9952C161.619 78.503 159.897 80.4287 157.658 81.7833C155.419 83.138 152.875 83.8097 150.017 83.8097C147.159 83.8097 144.627 83.1604 142.41 81.8505C140.204 80.5406 138.471 78.671 137.233 76.2415C135.996 73.8121 135.343 71.0244 135.287 67.8785V65.9976C135.287 62.7285 135.894 59.8401 137.098 57.3435C138.302 54.8469 140.035 52.9213 142.286 51.5554C144.537 50.2007 147.091 49.5178 149.972 49.5178C152.853 49.5178 155.351 50.1896 157.568 51.533C159.796 52.8765 161.529 54.7909 162.767 57.2763C164.005 59.7617 164.624 62.6054 164.646 65.8185V67.3523H164.658ZM156.431 65.964C156.431 62.6502 155.869 60.1312 154.766 58.4183C153.652 56.6942 152.054 55.8433 149.983 55.8433C145.932 55.8433 143.783 58.8661 143.558 64.9229L143.535 67.3747C143.535 70.6438 144.075 73.1628 145.167 74.9205C146.259 76.6782 147.879 77.5514 150.028 77.5514C152.178 77.5514 153.641 76.6894 154.755 74.9652C155.858 73.2411 156.42 70.7557 156.431 67.5202V65.9864V65.964Z" fill="#0099D9"/>
<path d="M175.956 72.032V83.3507H167.865V49.9768H181.245C183.811 49.9768 186.084 50.447 188.053 51.3874C190.022 52.3279 191.553 53.6601 192.633 55.3954C193.713 57.1307 194.254 59.1012 194.254 61.2955C194.254 64.5534 193.083 67.1507 190.743 69.0988C188.402 71.0468 185.183 72.0208 181.099 72.0208H175.933L175.956 72.032ZM175.956 65.8185H181.256C182.82 65.8185 184.013 65.4266 184.835 64.6541C185.656 63.8705 186.073 62.7733 186.073 61.3515C186.073 59.7953 185.645 58.5526 184.801 57.6122C183.957 56.6829 182.809 56.2015 181.346 56.1903H175.956V65.8185Z" fill="#0099D9"/>
<path d="M207.859 49.988L215.342 73.2076L222.803 49.988H233.449V83.3619H225.335V75.5698L226.123 59.6162L218.009 83.3619H212.664L204.528 59.5938L205.316 75.5698V83.3619H197.225V49.988H207.848H207.859Z" fill="#0099D9"/>
<path d="M257.047 69.1883H245.141V77.1595H259.354V83.3507H237.061V49.9768H259.399V56.1903H245.141V63.2323H257.047V69.1883Z" fill="#0099D9"/>
<path d="M290.086 83.3507H282.04L270.157 62.583V83.3507H262.065V49.9768H270.157L282.017 70.7445V49.9768H290.086V83.3507Z" fill="#0099D9"/>
<path d="M320.864 56.1903H310.792V83.3507H302.701V56.1903H292.821V49.9768H320.853V56.1903H320.864Z" fill="#0099D9"/>
</g>
<defs>
<clipPath id="clip0_82_44">
<rect width="680" height="84" fill="white"/>
</clipPath>
</defs>
</svg>
